G04 #@! TF.GenerationSoftware,KiCad,Pcbnew,5.0.2+dfsg1-1*
G04 #@! TF.CreationDate,2021-02-25T16:07:11+01:00*
G04 #@! TF.ProjectId,Pager-Interface (KiCAD),50616765-722d-4496-9e74-657266616365,rev?*
G04 #@! TF.SameCoordinates,Original*
G04 #@! TF.FileFunction,Paste,Top*
G04 #@! TF.FilePolarity,Positive*
%FSLAX46Y46*%
G04 Gerber Fmt 4.6, Leading zero omitted, Abs format (unit mm)*
G04 Created by KiCad (PCBNEW 5.0.2+dfsg1-1) date Thu 25 Feb 2021 16:07:11 CET*
%MOMM*%
%LPD*%
G01*
G04 APERTURE LIST*
%ADD10C,0.010000*%
%ADD11R,3.800000X2.000000*%
%ADD12R,1.500000X2.000000*%
%ADD13C,0.100000*%
%ADD14C,1.150000*%
%ADD15R,1.900000X1.750000*%
%ADD16R,1.400000X0.400000*%
%ADD17R,1.450000X1.150000*%
%ADD18R,5.080000X1.500000*%
%ADD19R,0.900000X0.800000*%
%ADD20R,3.000000X0.800000*%
%ADD21O,2.500000X0.900000*%
%ADD22O,0.900000X2.500000*%
%ADD23R,6.000000X6.000000*%
%ADD24R,0.270000X1.010000*%
%ADD25R,1.010000X0.270000*%
G04 APERTURE END LIST*
D10*
G04 #@! TO.C,U2*
G36*
X52250268Y-115750000D02*
X53400000Y-115750000D01*
X53400000Y-116901980D01*
X52250268Y-116901980D01*
X52250268Y-115750000D01*
G37*
X52250268Y-115750000D02*
X53400000Y-115750000D01*
X53400000Y-116901980D01*
X52250268Y-116901980D01*
X52250268Y-115750000D01*
G36*
X50738600Y-115750000D02*
X51890000Y-115750000D01*
X51890000Y-116901400D01*
X50738600Y-116901400D01*
X50738600Y-115750000D01*
G37*
X50738600Y-115750000D02*
X51890000Y-115750000D01*
X51890000Y-116901400D01*
X50738600Y-116901400D01*
X50738600Y-115750000D01*
G36*
X50738180Y-114240000D02*
X51890000Y-114240000D01*
X51890000Y-115389754D01*
X50738180Y-115389754D01*
X50738180Y-114240000D01*
G37*
X50738180Y-114240000D02*
X51890000Y-114240000D01*
X51890000Y-115389754D01*
X50738180Y-115389754D01*
X50738180Y-114240000D01*
G36*
X52250089Y-114240000D02*
X53400000Y-114240000D01*
X53400000Y-115389911D01*
X52250089Y-115389911D01*
X52250089Y-114240000D01*
G37*
X52250089Y-114240000D02*
X53400000Y-114240000D01*
X53400000Y-115389911D01*
X52250089Y-115389911D01*
X52250089Y-114240000D01*
G04 #@! TD*
D11*
G04 #@! TO.C,U1*
X65532000Y-119786000D03*
D12*
X65532000Y-126086000D03*
X67832000Y-126086000D03*
X63232000Y-126086000D03*
G04 #@! TD*
D13*
G04 #@! TO.C,C1*
G36*
X50650505Y-124269204D02*
X50674773Y-124272804D01*
X50698572Y-124278765D01*
X50721671Y-124287030D01*
X50743850Y-124297520D01*
X50764893Y-124310132D01*
X50784599Y-124324747D01*
X50802777Y-124341223D01*
X50819253Y-124359401D01*
X50833868Y-124379107D01*
X50846480Y-124400150D01*
X50856970Y-124422329D01*
X50865235Y-124445428D01*
X50871196Y-124469227D01*
X50874796Y-124493495D01*
X50876000Y-124517999D01*
X50876000Y-125418001D01*
X50874796Y-125442505D01*
X50871196Y-125466773D01*
X50865235Y-125490572D01*
X50856970Y-125513671D01*
X50846480Y-125535850D01*
X50833868Y-125556893D01*
X50819253Y-125576599D01*
X50802777Y-125594777D01*
X50784599Y-125611253D01*
X50764893Y-125625868D01*
X50743850Y-125638480D01*
X50721671Y-125648970D01*
X50698572Y-125657235D01*
X50674773Y-125663196D01*
X50650505Y-125666796D01*
X50626001Y-125668000D01*
X49975999Y-125668000D01*
X49951495Y-125666796D01*
X49927227Y-125663196D01*
X49903428Y-125657235D01*
X49880329Y-125648970D01*
X49858150Y-125638480D01*
X49837107Y-125625868D01*
X49817401Y-125611253D01*
X49799223Y-125594777D01*
X49782747Y-125576599D01*
X49768132Y-125556893D01*
X49755520Y-125535850D01*
X49745030Y-125513671D01*
X49736765Y-125490572D01*
X49730804Y-125466773D01*
X49727204Y-125442505D01*
X49726000Y-125418001D01*
X49726000Y-124517999D01*
X49727204Y-124493495D01*
X49730804Y-124469227D01*
X49736765Y-124445428D01*
X49745030Y-124422329D01*
X49755520Y-124400150D01*
X49768132Y-124379107D01*
X49782747Y-124359401D01*
X49799223Y-124341223D01*
X49817401Y-124324747D01*
X49837107Y-124310132D01*
X49858150Y-124297520D01*
X49880329Y-124287030D01*
X49903428Y-124278765D01*
X49927227Y-124272804D01*
X49951495Y-124269204D01*
X49975999Y-124268000D01*
X50626001Y-124268000D01*
X50650505Y-124269204D01*
X50650505Y-124269204D01*
G37*
D14*
X50301000Y-124968000D03*
D13*
G36*
X48600505Y-124269204D02*
X48624773Y-124272804D01*
X48648572Y-124278765D01*
X48671671Y-124287030D01*
X48693850Y-124297520D01*
X48714893Y-124310132D01*
X48734599Y-124324747D01*
X48752777Y-124341223D01*
X48769253Y-124359401D01*
X48783868Y-124379107D01*
X48796480Y-124400150D01*
X48806970Y-124422329D01*
X48815235Y-124445428D01*
X48821196Y-124469227D01*
X48824796Y-124493495D01*
X48826000Y-124517999D01*
X48826000Y-125418001D01*
X48824796Y-125442505D01*
X48821196Y-125466773D01*
X48815235Y-125490572D01*
X48806970Y-125513671D01*
X48796480Y-125535850D01*
X48783868Y-125556893D01*
X48769253Y-125576599D01*
X48752777Y-125594777D01*
X48734599Y-125611253D01*
X48714893Y-125625868D01*
X48693850Y-125638480D01*
X48671671Y-125648970D01*
X48648572Y-125657235D01*
X48624773Y-125663196D01*
X48600505Y-125666796D01*
X48576001Y-125668000D01*
X47925999Y-125668000D01*
X47901495Y-125666796D01*
X47877227Y-125663196D01*
X47853428Y-125657235D01*
X47830329Y-125648970D01*
X47808150Y-125638480D01*
X47787107Y-125625868D01*
X47767401Y-125611253D01*
X47749223Y-125594777D01*
X47732747Y-125576599D01*
X47718132Y-125556893D01*
X47705520Y-125535850D01*
X47695030Y-125513671D01*
X47686765Y-125490572D01*
X47680804Y-125466773D01*
X47677204Y-125442505D01*
X47676000Y-125418001D01*
X47676000Y-124517999D01*
X47677204Y-124493495D01*
X47680804Y-124469227D01*
X47686765Y-124445428D01*
X47695030Y-124422329D01*
X47705520Y-124400150D01*
X47718132Y-124379107D01*
X47732747Y-124359401D01*
X47749223Y-124341223D01*
X47767401Y-124324747D01*
X47787107Y-124310132D01*
X47808150Y-124297520D01*
X47830329Y-124287030D01*
X47853428Y-124278765D01*
X47877227Y-124272804D01*
X47901495Y-124269204D01*
X47925999Y-124268000D01*
X48576001Y-124268000D01*
X48600505Y-124269204D01*
X48600505Y-124269204D01*
G37*
D14*
X48251000Y-124968000D03*
G04 #@! TD*
D13*
G04 #@! TO.C,C2*
G36*
X74134505Y-123632204D02*
X74158773Y-123635804D01*
X74182572Y-123641765D01*
X74205671Y-123650030D01*
X74227850Y-123660520D01*
X74248893Y-123673132D01*
X74268599Y-123687747D01*
X74286777Y-123704223D01*
X74303253Y-123722401D01*
X74317868Y-123742107D01*
X74330480Y-123763150D01*
X74340970Y-123785329D01*
X74349235Y-123808428D01*
X74355196Y-123832227D01*
X74358796Y-123856495D01*
X74360000Y-123880999D01*
X74360000Y-124531001D01*
X74358796Y-124555505D01*
X74355196Y-124579773D01*
X74349235Y-124603572D01*
X74340970Y-124626671D01*
X74330480Y-124648850D01*
X74317868Y-124669893D01*
X74303253Y-124689599D01*
X74286777Y-124707777D01*
X74268599Y-124724253D01*
X74248893Y-124738868D01*
X74227850Y-124751480D01*
X74205671Y-124761970D01*
X74182572Y-124770235D01*
X74158773Y-124776196D01*
X74134505Y-124779796D01*
X74110001Y-124781000D01*
X73209999Y-124781000D01*
X73185495Y-124779796D01*
X73161227Y-124776196D01*
X73137428Y-124770235D01*
X73114329Y-124761970D01*
X73092150Y-124751480D01*
X73071107Y-124738868D01*
X73051401Y-124724253D01*
X73033223Y-124707777D01*
X73016747Y-124689599D01*
X73002132Y-124669893D01*
X72989520Y-124648850D01*
X72979030Y-124626671D01*
X72970765Y-124603572D01*
X72964804Y-124579773D01*
X72961204Y-124555505D01*
X72960000Y-124531001D01*
X72960000Y-123880999D01*
X72961204Y-123856495D01*
X72964804Y-123832227D01*
X72970765Y-123808428D01*
X72979030Y-123785329D01*
X72989520Y-123763150D01*
X73002132Y-123742107D01*
X73016747Y-123722401D01*
X73033223Y-123704223D01*
X73051401Y-123687747D01*
X73071107Y-123673132D01*
X73092150Y-123660520D01*
X73114329Y-123650030D01*
X73137428Y-123641765D01*
X73161227Y-123635804D01*
X73185495Y-123632204D01*
X73209999Y-123631000D01*
X74110001Y-123631000D01*
X74134505Y-123632204D01*
X74134505Y-123632204D01*
G37*
D14*
X73660000Y-124206000D03*
D13*
G36*
X74134505Y-125682204D02*
X74158773Y-125685804D01*
X74182572Y-125691765D01*
X74205671Y-125700030D01*
X74227850Y-125710520D01*
X74248893Y-125723132D01*
X74268599Y-125737747D01*
X74286777Y-125754223D01*
X74303253Y-125772401D01*
X74317868Y-125792107D01*
X74330480Y-125813150D01*
X74340970Y-125835329D01*
X74349235Y-125858428D01*
X74355196Y-125882227D01*
X74358796Y-125906495D01*
X74360000Y-125930999D01*
X74360000Y-126581001D01*
X74358796Y-126605505D01*
X74355196Y-126629773D01*
X74349235Y-126653572D01*
X74340970Y-126676671D01*
X74330480Y-126698850D01*
X74317868Y-126719893D01*
X74303253Y-126739599D01*
X74286777Y-126757777D01*
X74268599Y-126774253D01*
X74248893Y-126788868D01*
X74227850Y-126801480D01*
X74205671Y-126811970D01*
X74182572Y-126820235D01*
X74158773Y-126826196D01*
X74134505Y-126829796D01*
X74110001Y-126831000D01*
X73209999Y-126831000D01*
X73185495Y-126829796D01*
X73161227Y-126826196D01*
X73137428Y-126820235D01*
X73114329Y-126811970D01*
X73092150Y-126801480D01*
X73071107Y-126788868D01*
X73051401Y-126774253D01*
X73033223Y-126757777D01*
X73016747Y-126739599D01*
X73002132Y-126719893D01*
X72989520Y-126698850D01*
X72979030Y-126676671D01*
X72970765Y-126653572D01*
X72964804Y-126629773D01*
X72961204Y-126605505D01*
X72960000Y-126581001D01*
X72960000Y-125930999D01*
X72961204Y-125906495D01*
X72964804Y-125882227D01*
X72970765Y-125858428D01*
X72979030Y-125835329D01*
X72989520Y-125813150D01*
X73002132Y-125792107D01*
X73016747Y-125772401D01*
X73033223Y-125754223D01*
X73051401Y-125737747D01*
X73071107Y-125723132D01*
X73092150Y-125710520D01*
X73114329Y-125700030D01*
X73137428Y-125691765D01*
X73161227Y-125685804D01*
X73185495Y-125682204D01*
X73209999Y-125681000D01*
X74110001Y-125681000D01*
X74134505Y-125682204D01*
X74134505Y-125682204D01*
G37*
D14*
X73660000Y-126256000D03*
G04 #@! TD*
D13*
G04 #@! TO.C,C3*
G36*
X57263505Y-124269204D02*
X57287773Y-124272804D01*
X57311572Y-124278765D01*
X57334671Y-124287030D01*
X57356850Y-124297520D01*
X57377893Y-124310132D01*
X57397599Y-124324747D01*
X57415777Y-124341223D01*
X57432253Y-124359401D01*
X57446868Y-124379107D01*
X57459480Y-124400150D01*
X57469970Y-124422329D01*
X57478235Y-124445428D01*
X57484196Y-124469227D01*
X57487796Y-124493495D01*
X57489000Y-124517999D01*
X57489000Y-125418001D01*
X57487796Y-125442505D01*
X57484196Y-125466773D01*
X57478235Y-125490572D01*
X57469970Y-125513671D01*
X57459480Y-125535850D01*
X57446868Y-125556893D01*
X57432253Y-125576599D01*
X57415777Y-125594777D01*
X57397599Y-125611253D01*
X57377893Y-125625868D01*
X57356850Y-125638480D01*
X57334671Y-125648970D01*
X57311572Y-125657235D01*
X57287773Y-125663196D01*
X57263505Y-125666796D01*
X57239001Y-125668000D01*
X56588999Y-125668000D01*
X56564495Y-125666796D01*
X56540227Y-125663196D01*
X56516428Y-125657235D01*
X56493329Y-125648970D01*
X56471150Y-125638480D01*
X56450107Y-125625868D01*
X56430401Y-125611253D01*
X56412223Y-125594777D01*
X56395747Y-125576599D01*
X56381132Y-125556893D01*
X56368520Y-125535850D01*
X56358030Y-125513671D01*
X56349765Y-125490572D01*
X56343804Y-125466773D01*
X56340204Y-125442505D01*
X56339000Y-125418001D01*
X56339000Y-124517999D01*
X56340204Y-124493495D01*
X56343804Y-124469227D01*
X56349765Y-124445428D01*
X56358030Y-124422329D01*
X56368520Y-124400150D01*
X56381132Y-124379107D01*
X56395747Y-124359401D01*
X56412223Y-124341223D01*
X56430401Y-124324747D01*
X56450107Y-124310132D01*
X56471150Y-124297520D01*
X56493329Y-124287030D01*
X56516428Y-124278765D01*
X56540227Y-124272804D01*
X56564495Y-124269204D01*
X56588999Y-124268000D01*
X57239001Y-124268000D01*
X57263505Y-124269204D01*
X57263505Y-124269204D01*
G37*
D14*
X56914000Y-124968000D03*
D13*
G36*
X55213505Y-124269204D02*
X55237773Y-124272804D01*
X55261572Y-124278765D01*
X55284671Y-124287030D01*
X55306850Y-124297520D01*
X55327893Y-124310132D01*
X55347599Y-124324747D01*
X55365777Y-124341223D01*
X55382253Y-124359401D01*
X55396868Y-124379107D01*
X55409480Y-124400150D01*
X55419970Y-124422329D01*
X55428235Y-124445428D01*
X55434196Y-124469227D01*
X55437796Y-124493495D01*
X55439000Y-124517999D01*
X55439000Y-125418001D01*
X55437796Y-125442505D01*
X55434196Y-125466773D01*
X55428235Y-125490572D01*
X55419970Y-125513671D01*
X55409480Y-125535850D01*
X55396868Y-125556893D01*
X55382253Y-125576599D01*
X55365777Y-125594777D01*
X55347599Y-125611253D01*
X55327893Y-125625868D01*
X55306850Y-125638480D01*
X55284671Y-125648970D01*
X55261572Y-125657235D01*
X55237773Y-125663196D01*
X55213505Y-125666796D01*
X55189001Y-125668000D01*
X54538999Y-125668000D01*
X54514495Y-125666796D01*
X54490227Y-125663196D01*
X54466428Y-125657235D01*
X54443329Y-125648970D01*
X54421150Y-125638480D01*
X54400107Y-125625868D01*
X54380401Y-125611253D01*
X54362223Y-125594777D01*
X54345747Y-125576599D01*
X54331132Y-125556893D01*
X54318520Y-125535850D01*
X54308030Y-125513671D01*
X54299765Y-125490572D01*
X54293804Y-125466773D01*
X54290204Y-125442505D01*
X54289000Y-125418001D01*
X54289000Y-124517999D01*
X54290204Y-124493495D01*
X54293804Y-124469227D01*
X54299765Y-124445428D01*
X54308030Y-124422329D01*
X54318520Y-124400150D01*
X54331132Y-124379107D01*
X54345747Y-124359401D01*
X54362223Y-124341223D01*
X54380401Y-124324747D01*
X54400107Y-124310132D01*
X54421150Y-124297520D01*
X54443329Y-124287030D01*
X54466428Y-124278765D01*
X54490227Y-124272804D01*
X54514495Y-124269204D01*
X54538999Y-124268000D01*
X55189001Y-124268000D01*
X55213505Y-124269204D01*
X55213505Y-124269204D01*
G37*
D14*
X54864000Y-124968000D03*
G04 #@! TD*
D13*
G04 #@! TO.C,C4*
G36*
X48591505Y-120713204D02*
X48615773Y-120716804D01*
X48639572Y-120722765D01*
X48662671Y-120731030D01*
X48684850Y-120741520D01*
X48705893Y-120754132D01*
X48725599Y-120768747D01*
X48743777Y-120785223D01*
X48760253Y-120803401D01*
X48774868Y-120823107D01*
X48787480Y-120844150D01*
X48797970Y-120866329D01*
X48806235Y-120889428D01*
X48812196Y-120913227D01*
X48815796Y-120937495D01*
X48817000Y-120961999D01*
X48817000Y-121862001D01*
X48815796Y-121886505D01*
X48812196Y-121910773D01*
X48806235Y-121934572D01*
X48797970Y-121957671D01*
X48787480Y-121979850D01*
X48774868Y-122000893D01*
X48760253Y-122020599D01*
X48743777Y-122038777D01*
X48725599Y-122055253D01*
X48705893Y-122069868D01*
X48684850Y-122082480D01*
X48662671Y-122092970D01*
X48639572Y-122101235D01*
X48615773Y-122107196D01*
X48591505Y-122110796D01*
X48567001Y-122112000D01*
X47916999Y-122112000D01*
X47892495Y-122110796D01*
X47868227Y-122107196D01*
X47844428Y-122101235D01*
X47821329Y-122092970D01*
X47799150Y-122082480D01*
X47778107Y-122069868D01*
X47758401Y-122055253D01*
X47740223Y-122038777D01*
X47723747Y-122020599D01*
X47709132Y-122000893D01*
X47696520Y-121979850D01*
X47686030Y-121957671D01*
X47677765Y-121934572D01*
X47671804Y-121910773D01*
X47668204Y-121886505D01*
X47667000Y-121862001D01*
X47667000Y-120961999D01*
X47668204Y-120937495D01*
X47671804Y-120913227D01*
X47677765Y-120889428D01*
X47686030Y-120866329D01*
X47696520Y-120844150D01*
X47709132Y-120823107D01*
X47723747Y-120803401D01*
X47740223Y-120785223D01*
X47758401Y-120768747D01*
X47778107Y-120754132D01*
X47799150Y-120741520D01*
X47821329Y-120731030D01*
X47844428Y-120722765D01*
X47868227Y-120716804D01*
X47892495Y-120713204D01*
X47916999Y-120712000D01*
X48567001Y-120712000D01*
X48591505Y-120713204D01*
X48591505Y-120713204D01*
G37*
D14*
X48242000Y-121412000D03*
D13*
G36*
X50641505Y-120713204D02*
X50665773Y-120716804D01*
X50689572Y-120722765D01*
X50712671Y-120731030D01*
X50734850Y-120741520D01*
X50755893Y-120754132D01*
X50775599Y-120768747D01*
X50793777Y-120785223D01*
X50810253Y-120803401D01*
X50824868Y-120823107D01*
X50837480Y-120844150D01*
X50847970Y-120866329D01*
X50856235Y-120889428D01*
X50862196Y-120913227D01*
X50865796Y-120937495D01*
X50867000Y-120961999D01*
X50867000Y-121862001D01*
X50865796Y-121886505D01*
X50862196Y-121910773D01*
X50856235Y-121934572D01*
X50847970Y-121957671D01*
X50837480Y-121979850D01*
X50824868Y-122000893D01*
X50810253Y-122020599D01*
X50793777Y-122038777D01*
X50775599Y-122055253D01*
X50755893Y-122069868D01*
X50734850Y-122082480D01*
X50712671Y-122092970D01*
X50689572Y-122101235D01*
X50665773Y-122107196D01*
X50641505Y-122110796D01*
X50617001Y-122112000D01*
X49966999Y-122112000D01*
X49942495Y-122110796D01*
X49918227Y-122107196D01*
X49894428Y-122101235D01*
X49871329Y-122092970D01*
X49849150Y-122082480D01*
X49828107Y-122069868D01*
X49808401Y-122055253D01*
X49790223Y-122038777D01*
X49773747Y-122020599D01*
X49759132Y-122000893D01*
X49746520Y-121979850D01*
X49736030Y-121957671D01*
X49727765Y-121934572D01*
X49721804Y-121910773D01*
X49718204Y-121886505D01*
X49717000Y-121862001D01*
X49717000Y-120961999D01*
X49718204Y-120937495D01*
X49721804Y-120913227D01*
X49727765Y-120889428D01*
X49736030Y-120866329D01*
X49746520Y-120844150D01*
X49759132Y-120823107D01*
X49773747Y-120803401D01*
X49790223Y-120785223D01*
X49808401Y-120768747D01*
X49828107Y-120754132D01*
X49849150Y-120741520D01*
X49871329Y-120731030D01*
X49894428Y-120722765D01*
X49918227Y-120716804D01*
X49942495Y-120713204D01*
X49966999Y-120712000D01*
X50617001Y-120712000D01*
X50641505Y-120713204D01*
X50641505Y-120713204D01*
G37*
D14*
X50292000Y-121412000D03*
G04 #@! TD*
D13*
G04 #@! TO.C,C5*
G36*
X68666505Y-114109204D02*
X68690773Y-114112804D01*
X68714572Y-114118765D01*
X68737671Y-114127030D01*
X68759850Y-114137520D01*
X68780893Y-114150132D01*
X68800599Y-114164747D01*
X68818777Y-114181223D01*
X68835253Y-114199401D01*
X68849868Y-114219107D01*
X68862480Y-114240150D01*
X68872970Y-114262329D01*
X68881235Y-114285428D01*
X68887196Y-114309227D01*
X68890796Y-114333495D01*
X68892000Y-114357999D01*
X68892000Y-115258001D01*
X68890796Y-115282505D01*
X68887196Y-115306773D01*
X68881235Y-115330572D01*
X68872970Y-115353671D01*
X68862480Y-115375850D01*
X68849868Y-115396893D01*
X68835253Y-115416599D01*
X68818777Y-115434777D01*
X68800599Y-115451253D01*
X68780893Y-115465868D01*
X68759850Y-115478480D01*
X68737671Y-115488970D01*
X68714572Y-115497235D01*
X68690773Y-115503196D01*
X68666505Y-115506796D01*
X68642001Y-115508000D01*
X67991999Y-115508000D01*
X67967495Y-115506796D01*
X67943227Y-115503196D01*
X67919428Y-115497235D01*
X67896329Y-115488970D01*
X67874150Y-115478480D01*
X67853107Y-115465868D01*
X67833401Y-115451253D01*
X67815223Y-115434777D01*
X67798747Y-115416599D01*
X67784132Y-115396893D01*
X67771520Y-115375850D01*
X67761030Y-115353671D01*
X67752765Y-115330572D01*
X67746804Y-115306773D01*
X67743204Y-115282505D01*
X67742000Y-115258001D01*
X67742000Y-114357999D01*
X67743204Y-114333495D01*
X67746804Y-114309227D01*
X67752765Y-114285428D01*
X67761030Y-114262329D01*
X67771520Y-114240150D01*
X67784132Y-114219107D01*
X67798747Y-114199401D01*
X67815223Y-114181223D01*
X67833401Y-114164747D01*
X67853107Y-114150132D01*
X67874150Y-114137520D01*
X67896329Y-114127030D01*
X67919428Y-114118765D01*
X67943227Y-114112804D01*
X67967495Y-114109204D01*
X67991999Y-114108000D01*
X68642001Y-114108000D01*
X68666505Y-114109204D01*
X68666505Y-114109204D01*
G37*
D14*
X68317000Y-114808000D03*
D13*
G36*
X70716505Y-114109204D02*
X70740773Y-114112804D01*
X70764572Y-114118765D01*
X70787671Y-114127030D01*
X70809850Y-114137520D01*
X70830893Y-114150132D01*
X70850599Y-114164747D01*
X70868777Y-114181223D01*
X70885253Y-114199401D01*
X70899868Y-114219107D01*
X70912480Y-114240150D01*
X70922970Y-114262329D01*
X70931235Y-114285428D01*
X70937196Y-114309227D01*
X70940796Y-114333495D01*
X70942000Y-114357999D01*
X70942000Y-115258001D01*
X70940796Y-115282505D01*
X70937196Y-115306773D01*
X70931235Y-115330572D01*
X70922970Y-115353671D01*
X70912480Y-115375850D01*
X70899868Y-115396893D01*
X70885253Y-115416599D01*
X70868777Y-115434777D01*
X70850599Y-115451253D01*
X70830893Y-115465868D01*
X70809850Y-115478480D01*
X70787671Y-115488970D01*
X70764572Y-115497235D01*
X70740773Y-115503196D01*
X70716505Y-115506796D01*
X70692001Y-115508000D01*
X70041999Y-115508000D01*
X70017495Y-115506796D01*
X69993227Y-115503196D01*
X69969428Y-115497235D01*
X69946329Y-115488970D01*
X69924150Y-115478480D01*
X69903107Y-115465868D01*
X69883401Y-115451253D01*
X69865223Y-115434777D01*
X69848747Y-115416599D01*
X69834132Y-115396893D01*
X69821520Y-115375850D01*
X69811030Y-115353671D01*
X69802765Y-115330572D01*
X69796804Y-115306773D01*
X69793204Y-115282505D01*
X69792000Y-115258001D01*
X69792000Y-114357999D01*
X69793204Y-114333495D01*
X69796804Y-114309227D01*
X69802765Y-114285428D01*
X69811030Y-114262329D01*
X69821520Y-114240150D01*
X69834132Y-114219107D01*
X69848747Y-114199401D01*
X69865223Y-114181223D01*
X69883401Y-114164747D01*
X69903107Y-114150132D01*
X69924150Y-114137520D01*
X69946329Y-114127030D01*
X69969428Y-114118765D01*
X69993227Y-114112804D01*
X70017495Y-114109204D01*
X70041999Y-114108000D01*
X70692001Y-114108000D01*
X70716505Y-114109204D01*
X70716505Y-114109204D01*
G37*
D14*
X70367000Y-114808000D03*
G04 #@! TD*
D13*
G04 #@! TO.C,C6*
G36*
X67142505Y-104711204D02*
X67166773Y-104714804D01*
X67190572Y-104720765D01*
X67213671Y-104729030D01*
X67235850Y-104739520D01*
X67256893Y-104752132D01*
X67276599Y-104766747D01*
X67294777Y-104783223D01*
X67311253Y-104801401D01*
X67325868Y-104821107D01*
X67338480Y-104842150D01*
X67348970Y-104864329D01*
X67357235Y-104887428D01*
X67363196Y-104911227D01*
X67366796Y-104935495D01*
X67368000Y-104959999D01*
X67368000Y-105860001D01*
X67366796Y-105884505D01*
X67363196Y-105908773D01*
X67357235Y-105932572D01*
X67348970Y-105955671D01*
X67338480Y-105977850D01*
X67325868Y-105998893D01*
X67311253Y-106018599D01*
X67294777Y-106036777D01*
X67276599Y-106053253D01*
X67256893Y-106067868D01*
X67235850Y-106080480D01*
X67213671Y-106090970D01*
X67190572Y-106099235D01*
X67166773Y-106105196D01*
X67142505Y-106108796D01*
X67118001Y-106110000D01*
X66467999Y-106110000D01*
X66443495Y-106108796D01*
X66419227Y-106105196D01*
X66395428Y-106099235D01*
X66372329Y-106090970D01*
X66350150Y-106080480D01*
X66329107Y-106067868D01*
X66309401Y-106053253D01*
X66291223Y-106036777D01*
X66274747Y-106018599D01*
X66260132Y-105998893D01*
X66247520Y-105977850D01*
X66237030Y-105955671D01*
X66228765Y-105932572D01*
X66222804Y-105908773D01*
X66219204Y-105884505D01*
X66218000Y-105860001D01*
X66218000Y-104959999D01*
X66219204Y-104935495D01*
X66222804Y-104911227D01*
X66228765Y-104887428D01*
X66237030Y-104864329D01*
X66247520Y-104842150D01*
X66260132Y-104821107D01*
X66274747Y-104801401D01*
X66291223Y-104783223D01*
X66309401Y-104766747D01*
X66329107Y-104752132D01*
X66350150Y-104739520D01*
X66372329Y-104729030D01*
X66395428Y-104720765D01*
X66419227Y-104714804D01*
X66443495Y-104711204D01*
X66467999Y-104710000D01*
X67118001Y-104710000D01*
X67142505Y-104711204D01*
X67142505Y-104711204D01*
G37*
D14*
X66793000Y-105410000D03*
D13*
G36*
X69192505Y-104711204D02*
X69216773Y-104714804D01*
X69240572Y-104720765D01*
X69263671Y-104729030D01*
X69285850Y-104739520D01*
X69306893Y-104752132D01*
X69326599Y-104766747D01*
X69344777Y-104783223D01*
X69361253Y-104801401D01*
X69375868Y-104821107D01*
X69388480Y-104842150D01*
X69398970Y-104864329D01*
X69407235Y-104887428D01*
X69413196Y-104911227D01*
X69416796Y-104935495D01*
X69418000Y-104959999D01*
X69418000Y-105860001D01*
X69416796Y-105884505D01*
X69413196Y-105908773D01*
X69407235Y-105932572D01*
X69398970Y-105955671D01*
X69388480Y-105977850D01*
X69375868Y-105998893D01*
X69361253Y-106018599D01*
X69344777Y-106036777D01*
X69326599Y-106053253D01*
X69306893Y-106067868D01*
X69285850Y-106080480D01*
X69263671Y-106090970D01*
X69240572Y-106099235D01*
X69216773Y-106105196D01*
X69192505Y-106108796D01*
X69168001Y-106110000D01*
X68517999Y-106110000D01*
X68493495Y-106108796D01*
X68469227Y-106105196D01*
X68445428Y-106099235D01*
X68422329Y-106090970D01*
X68400150Y-106080480D01*
X68379107Y-106067868D01*
X68359401Y-106053253D01*
X68341223Y-106036777D01*
X68324747Y-106018599D01*
X68310132Y-105998893D01*
X68297520Y-105977850D01*
X68287030Y-105955671D01*
X68278765Y-105932572D01*
X68272804Y-105908773D01*
X68269204Y-105884505D01*
X68268000Y-105860001D01*
X68268000Y-104959999D01*
X68269204Y-104935495D01*
X68272804Y-104911227D01*
X68278765Y-104887428D01*
X68287030Y-104864329D01*
X68297520Y-104842150D01*
X68310132Y-104821107D01*
X68324747Y-104801401D01*
X68341223Y-104783223D01*
X68359401Y-104766747D01*
X68379107Y-104752132D01*
X68400150Y-104739520D01*
X68422329Y-104729030D01*
X68445428Y-104720765D01*
X68469227Y-104714804D01*
X68493495Y-104711204D01*
X68517999Y-104710000D01*
X69168001Y-104710000D01*
X69192505Y-104711204D01*
X69192505Y-104711204D01*
G37*
D14*
X68843000Y-105410000D03*
G04 #@! TD*
D13*
G04 #@! TO.C,C7*
G36*
X72864505Y-106868204D02*
X72888773Y-106871804D01*
X72912572Y-106877765D01*
X72935671Y-106886030D01*
X72957850Y-106896520D01*
X72978893Y-106909132D01*
X72998599Y-106923747D01*
X73016777Y-106940223D01*
X73033253Y-106958401D01*
X73047868Y-106978107D01*
X73060480Y-106999150D01*
X73070970Y-107021329D01*
X73079235Y-107044428D01*
X73085196Y-107068227D01*
X73088796Y-107092495D01*
X73090000Y-107116999D01*
X73090000Y-107767001D01*
X73088796Y-107791505D01*
X73085196Y-107815773D01*
X73079235Y-107839572D01*
X73070970Y-107862671D01*
X73060480Y-107884850D01*
X73047868Y-107905893D01*
X73033253Y-107925599D01*
X73016777Y-107943777D01*
X72998599Y-107960253D01*
X72978893Y-107974868D01*
X72957850Y-107987480D01*
X72935671Y-107997970D01*
X72912572Y-108006235D01*
X72888773Y-108012196D01*
X72864505Y-108015796D01*
X72840001Y-108017000D01*
X71939999Y-108017000D01*
X71915495Y-108015796D01*
X71891227Y-108012196D01*
X71867428Y-108006235D01*
X71844329Y-107997970D01*
X71822150Y-107987480D01*
X71801107Y-107974868D01*
X71781401Y-107960253D01*
X71763223Y-107943777D01*
X71746747Y-107925599D01*
X71732132Y-107905893D01*
X71719520Y-107884850D01*
X71709030Y-107862671D01*
X71700765Y-107839572D01*
X71694804Y-107815773D01*
X71691204Y-107791505D01*
X71690000Y-107767001D01*
X71690000Y-107116999D01*
X71691204Y-107092495D01*
X71694804Y-107068227D01*
X71700765Y-107044428D01*
X71709030Y-107021329D01*
X71719520Y-106999150D01*
X71732132Y-106978107D01*
X71746747Y-106958401D01*
X71763223Y-106940223D01*
X71781401Y-106923747D01*
X71801107Y-106909132D01*
X71822150Y-106896520D01*
X71844329Y-106886030D01*
X71867428Y-106877765D01*
X71891227Y-106871804D01*
X71915495Y-106868204D01*
X71939999Y-106867000D01*
X72840001Y-106867000D01*
X72864505Y-106868204D01*
X72864505Y-106868204D01*
G37*
D14*
X72390000Y-107442000D03*
D13*
G36*
X72864505Y-104818204D02*
X72888773Y-104821804D01*
X72912572Y-104827765D01*
X72935671Y-104836030D01*
X72957850Y-104846520D01*
X72978893Y-104859132D01*
X72998599Y-104873747D01*
X73016777Y-104890223D01*
X73033253Y-104908401D01*
X73047868Y-104928107D01*
X73060480Y-104949150D01*
X73070970Y-104971329D01*
X73079235Y-104994428D01*
X73085196Y-105018227D01*
X73088796Y-105042495D01*
X73090000Y-105066999D01*
X73090000Y-105717001D01*
X73088796Y-105741505D01*
X73085196Y-105765773D01*
X73079235Y-105789572D01*
X73070970Y-105812671D01*
X73060480Y-105834850D01*
X73047868Y-105855893D01*
X73033253Y-105875599D01*
X73016777Y-105893777D01*
X72998599Y-105910253D01*
X72978893Y-105924868D01*
X72957850Y-105937480D01*
X72935671Y-105947970D01*
X72912572Y-105956235D01*
X72888773Y-105962196D01*
X72864505Y-105965796D01*
X72840001Y-105967000D01*
X71939999Y-105967000D01*
X71915495Y-105965796D01*
X71891227Y-105962196D01*
X71867428Y-105956235D01*
X71844329Y-105947970D01*
X71822150Y-105937480D01*
X71801107Y-105924868D01*
X71781401Y-105910253D01*
X71763223Y-105893777D01*
X71746747Y-105875599D01*
X71732132Y-105855893D01*
X71719520Y-105834850D01*
X71709030Y-105812671D01*
X71700765Y-105789572D01*
X71694804Y-105765773D01*
X71691204Y-105741505D01*
X71690000Y-105717001D01*
X71690000Y-105066999D01*
X71691204Y-105042495D01*
X71694804Y-105018227D01*
X71700765Y-104994428D01*
X71709030Y-104971329D01*
X71719520Y-104949150D01*
X71732132Y-104928107D01*
X71746747Y-104908401D01*
X71763223Y-104890223D01*
X71781401Y-104873747D01*
X71801107Y-104859132D01*
X71822150Y-104846520D01*
X71844329Y-104836030D01*
X71867428Y-104827765D01*
X71891227Y-104821804D01*
X71915495Y-104818204D01*
X71939999Y-104817000D01*
X72840001Y-104817000D01*
X72864505Y-104818204D01*
X72864505Y-104818204D01*
G37*
D14*
X72390000Y-105392000D03*
G04 #@! TD*
D13*
G04 #@! TO.C,C8*
G36*
X76674505Y-106868204D02*
X76698773Y-106871804D01*
X76722572Y-106877765D01*
X76745671Y-106886030D01*
X76767850Y-106896520D01*
X76788893Y-106909132D01*
X76808599Y-106923747D01*
X76826777Y-106940223D01*
X76843253Y-106958401D01*
X76857868Y-106978107D01*
X76870480Y-106999150D01*
X76880970Y-107021329D01*
X76889235Y-107044428D01*
X76895196Y-107068227D01*
X76898796Y-107092495D01*
X76900000Y-107116999D01*
X76900000Y-107767001D01*
X76898796Y-107791505D01*
X76895196Y-107815773D01*
X76889235Y-107839572D01*
X76880970Y-107862671D01*
X76870480Y-107884850D01*
X76857868Y-107905893D01*
X76843253Y-107925599D01*
X76826777Y-107943777D01*
X76808599Y-107960253D01*
X76788893Y-107974868D01*
X76767850Y-107987480D01*
X76745671Y-107997970D01*
X76722572Y-108006235D01*
X76698773Y-108012196D01*
X76674505Y-108015796D01*
X76650001Y-108017000D01*
X75749999Y-108017000D01*
X75725495Y-108015796D01*
X75701227Y-108012196D01*
X75677428Y-108006235D01*
X75654329Y-107997970D01*
X75632150Y-107987480D01*
X75611107Y-107974868D01*
X75591401Y-107960253D01*
X75573223Y-107943777D01*
X75556747Y-107925599D01*
X75542132Y-107905893D01*
X75529520Y-107884850D01*
X75519030Y-107862671D01*
X75510765Y-107839572D01*
X75504804Y-107815773D01*
X75501204Y-107791505D01*
X75500000Y-107767001D01*
X75500000Y-107116999D01*
X75501204Y-107092495D01*
X75504804Y-107068227D01*
X75510765Y-107044428D01*
X75519030Y-107021329D01*
X75529520Y-106999150D01*
X75542132Y-106978107D01*
X75556747Y-106958401D01*
X75573223Y-106940223D01*
X75591401Y-106923747D01*
X75611107Y-106909132D01*
X75632150Y-106896520D01*
X75654329Y-106886030D01*
X75677428Y-106877765D01*
X75701227Y-106871804D01*
X75725495Y-106868204D01*
X75749999Y-106867000D01*
X76650001Y-106867000D01*
X76674505Y-106868204D01*
X76674505Y-106868204D01*
G37*
D14*
X76200000Y-107442000D03*
D13*
G36*
X76674505Y-104818204D02*
X76698773Y-104821804D01*
X76722572Y-104827765D01*
X76745671Y-104836030D01*
X76767850Y-104846520D01*
X76788893Y-104859132D01*
X76808599Y-104873747D01*
X76826777Y-104890223D01*
X76843253Y-104908401D01*
X76857868Y-104928107D01*
X76870480Y-104949150D01*
X76880970Y-104971329D01*
X76889235Y-104994428D01*
X76895196Y-105018227D01*
X76898796Y-105042495D01*
X76900000Y-105066999D01*
X76900000Y-105717001D01*
X76898796Y-105741505D01*
X76895196Y-105765773D01*
X76889235Y-105789572D01*
X76880970Y-105812671D01*
X76870480Y-105834850D01*
X76857868Y-105855893D01*
X76843253Y-105875599D01*
X76826777Y-105893777D01*
X76808599Y-105910253D01*
X76788893Y-105924868D01*
X76767850Y-105937480D01*
X76745671Y-105947970D01*
X76722572Y-105956235D01*
X76698773Y-105962196D01*
X76674505Y-105965796D01*
X76650001Y-105967000D01*
X75749999Y-105967000D01*
X75725495Y-105965796D01*
X75701227Y-105962196D01*
X75677428Y-105956235D01*
X75654329Y-105947970D01*
X75632150Y-105937480D01*
X75611107Y-105924868D01*
X75591401Y-105910253D01*
X75573223Y-105893777D01*
X75556747Y-105875599D01*
X75542132Y-105855893D01*
X75529520Y-105834850D01*
X75519030Y-105812671D01*
X75510765Y-105789572D01*
X75504804Y-105765773D01*
X75501204Y-105741505D01*
X75500000Y-105717001D01*
X75500000Y-105066999D01*
X75501204Y-105042495D01*
X75504804Y-105018227D01*
X75510765Y-104994428D01*
X75519030Y-104971329D01*
X75529520Y-104949150D01*
X75542132Y-104928107D01*
X75556747Y-104908401D01*
X75573223Y-104890223D01*
X75591401Y-104873747D01*
X75611107Y-104859132D01*
X75632150Y-104846520D01*
X75654329Y-104836030D01*
X75677428Y-104827765D01*
X75701227Y-104821804D01*
X75725495Y-104818204D01*
X75749999Y-104817000D01*
X76650001Y-104817000D01*
X76674505Y-104818204D01*
X76674505Y-104818204D01*
G37*
D14*
X76200000Y-105392000D03*
G04 #@! TD*
D15*
G04 #@! TO.C,J1*
X40710000Y-117125000D03*
D16*
X43360000Y-115350000D03*
X43360000Y-114700000D03*
X43360000Y-117300000D03*
X43360000Y-116650000D03*
X43360000Y-116000000D03*
D15*
X40710000Y-114875000D03*
D17*
X42940000Y-118320000D03*
X42940000Y-113680000D03*
G04 #@! TD*
D18*
G04 #@! TO.C,J2*
X136000000Y-110250000D03*
X136000000Y-101750000D03*
X136000000Y-106000000D03*
G04 #@! TD*
D19*
G04 #@! TO.C,Q1*
X59452000Y-104460000D03*
X59452000Y-106360000D03*
X61452000Y-105410000D03*
G04 #@! TD*
G04 #@! TO.C,Q2*
X59706000Y-114046000D03*
X61706000Y-113096000D03*
X61706000Y-114996000D03*
G04 #@! TD*
D13*
G04 #@! TO.C,R1*
G36*
X55730505Y-103187204D02*
X55754773Y-103190804D01*
X55778572Y-103196765D01*
X55801671Y-103205030D01*
X55823850Y-103215520D01*
X55844893Y-103228132D01*
X55864599Y-103242747D01*
X55882777Y-103259223D01*
X55899253Y-103277401D01*
X55913868Y-103297107D01*
X55926480Y-103318150D01*
X55936970Y-103340329D01*
X55945235Y-103363428D01*
X55951196Y-103387227D01*
X55954796Y-103411495D01*
X55956000Y-103435999D01*
X55956000Y-104336001D01*
X55954796Y-104360505D01*
X55951196Y-104384773D01*
X55945235Y-104408572D01*
X55936970Y-104431671D01*
X55926480Y-104453850D01*
X55913868Y-104474893D01*
X55899253Y-104494599D01*
X55882777Y-104512777D01*
X55864599Y-104529253D01*
X55844893Y-104543868D01*
X55823850Y-104556480D01*
X55801671Y-104566970D01*
X55778572Y-104575235D01*
X55754773Y-104581196D01*
X55730505Y-104584796D01*
X55706001Y-104586000D01*
X55055999Y-104586000D01*
X55031495Y-104584796D01*
X55007227Y-104581196D01*
X54983428Y-104575235D01*
X54960329Y-104566970D01*
X54938150Y-104556480D01*
X54917107Y-104543868D01*
X54897401Y-104529253D01*
X54879223Y-104512777D01*
X54862747Y-104494599D01*
X54848132Y-104474893D01*
X54835520Y-104453850D01*
X54825030Y-104431671D01*
X54816765Y-104408572D01*
X54810804Y-104384773D01*
X54807204Y-104360505D01*
X54806000Y-104336001D01*
X54806000Y-103435999D01*
X54807204Y-103411495D01*
X54810804Y-103387227D01*
X54816765Y-103363428D01*
X54825030Y-103340329D01*
X54835520Y-103318150D01*
X54848132Y-103297107D01*
X54862747Y-103277401D01*
X54879223Y-103259223D01*
X54897401Y-103242747D01*
X54917107Y-103228132D01*
X54938150Y-103215520D01*
X54960329Y-103205030D01*
X54983428Y-103196765D01*
X55007227Y-103190804D01*
X55031495Y-103187204D01*
X55055999Y-103186000D01*
X55706001Y-103186000D01*
X55730505Y-103187204D01*
X55730505Y-103187204D01*
G37*
D14*
X55381000Y-103886000D03*
D13*
G36*
X53680505Y-103187204D02*
X53704773Y-103190804D01*
X53728572Y-103196765D01*
X53751671Y-103205030D01*
X53773850Y-103215520D01*
X53794893Y-103228132D01*
X53814599Y-103242747D01*
X53832777Y-103259223D01*
X53849253Y-103277401D01*
X53863868Y-103297107D01*
X53876480Y-103318150D01*
X53886970Y-103340329D01*
X53895235Y-103363428D01*
X53901196Y-103387227D01*
X53904796Y-103411495D01*
X53906000Y-103435999D01*
X53906000Y-104336001D01*
X53904796Y-104360505D01*
X53901196Y-104384773D01*
X53895235Y-104408572D01*
X53886970Y-104431671D01*
X53876480Y-104453850D01*
X53863868Y-104474893D01*
X53849253Y-104494599D01*
X53832777Y-104512777D01*
X53814599Y-104529253D01*
X53794893Y-104543868D01*
X53773850Y-104556480D01*
X53751671Y-104566970D01*
X53728572Y-104575235D01*
X53704773Y-104581196D01*
X53680505Y-104584796D01*
X53656001Y-104586000D01*
X53005999Y-104586000D01*
X52981495Y-104584796D01*
X52957227Y-104581196D01*
X52933428Y-104575235D01*
X52910329Y-104566970D01*
X52888150Y-104556480D01*
X52867107Y-104543868D01*
X52847401Y-104529253D01*
X52829223Y-104512777D01*
X52812747Y-104494599D01*
X52798132Y-104474893D01*
X52785520Y-104453850D01*
X52775030Y-104431671D01*
X52766765Y-104408572D01*
X52760804Y-104384773D01*
X52757204Y-104360505D01*
X52756000Y-104336001D01*
X52756000Y-103435999D01*
X52757204Y-103411495D01*
X52760804Y-103387227D01*
X52766765Y-103363428D01*
X52775030Y-103340329D01*
X52785520Y-103318150D01*
X52798132Y-103297107D01*
X52812747Y-103277401D01*
X52829223Y-103259223D01*
X52847401Y-103242747D01*
X52867107Y-103228132D01*
X52888150Y-103215520D01*
X52910329Y-103205030D01*
X52933428Y-103196765D01*
X52957227Y-103190804D01*
X52981495Y-103187204D01*
X53005999Y-103186000D01*
X53656001Y-103186000D01*
X53680505Y-103187204D01*
X53680505Y-103187204D01*
G37*
D14*
X53331000Y-103886000D03*
G04 #@! TD*
D13*
G04 #@! TO.C,R2*
G36*
X53680505Y-106743204D02*
X53704773Y-106746804D01*
X53728572Y-106752765D01*
X53751671Y-106761030D01*
X53773850Y-106771520D01*
X53794893Y-106784132D01*
X53814599Y-106798747D01*
X53832777Y-106815223D01*
X53849253Y-106833401D01*
X53863868Y-106853107D01*
X53876480Y-106874150D01*
X53886970Y-106896329D01*
X53895235Y-106919428D01*
X53901196Y-106943227D01*
X53904796Y-106967495D01*
X53906000Y-106991999D01*
X53906000Y-107892001D01*
X53904796Y-107916505D01*
X53901196Y-107940773D01*
X53895235Y-107964572D01*
X53886970Y-107987671D01*
X53876480Y-108009850D01*
X53863868Y-108030893D01*
X53849253Y-108050599D01*
X53832777Y-108068777D01*
X53814599Y-108085253D01*
X53794893Y-108099868D01*
X53773850Y-108112480D01*
X53751671Y-108122970D01*
X53728572Y-108131235D01*
X53704773Y-108137196D01*
X53680505Y-108140796D01*
X53656001Y-108142000D01*
X53005999Y-108142000D01*
X52981495Y-108140796D01*
X52957227Y-108137196D01*
X52933428Y-108131235D01*
X52910329Y-108122970D01*
X52888150Y-108112480D01*
X52867107Y-108099868D01*
X52847401Y-108085253D01*
X52829223Y-108068777D01*
X52812747Y-108050599D01*
X52798132Y-108030893D01*
X52785520Y-108009850D01*
X52775030Y-107987671D01*
X52766765Y-107964572D01*
X52760804Y-107940773D01*
X52757204Y-107916505D01*
X52756000Y-107892001D01*
X52756000Y-106991999D01*
X52757204Y-106967495D01*
X52760804Y-106943227D01*
X52766765Y-106919428D01*
X52775030Y-106896329D01*
X52785520Y-106874150D01*
X52798132Y-106853107D01*
X52812747Y-106833401D01*
X52829223Y-106815223D01*
X52847401Y-106798747D01*
X52867107Y-106784132D01*
X52888150Y-106771520D01*
X52910329Y-106761030D01*
X52933428Y-106752765D01*
X52957227Y-106746804D01*
X52981495Y-106743204D01*
X53005999Y-106742000D01*
X53656001Y-106742000D01*
X53680505Y-106743204D01*
X53680505Y-106743204D01*
G37*
D14*
X53331000Y-107442000D03*
D13*
G36*
X55730505Y-106743204D02*
X55754773Y-106746804D01*
X55778572Y-106752765D01*
X55801671Y-106761030D01*
X55823850Y-106771520D01*
X55844893Y-106784132D01*
X55864599Y-106798747D01*
X55882777Y-106815223D01*
X55899253Y-106833401D01*
X55913868Y-106853107D01*
X55926480Y-106874150D01*
X55936970Y-106896329D01*
X55945235Y-106919428D01*
X55951196Y-106943227D01*
X55954796Y-106967495D01*
X55956000Y-106991999D01*
X55956000Y-107892001D01*
X55954796Y-107916505D01*
X55951196Y-107940773D01*
X55945235Y-107964572D01*
X55936970Y-107987671D01*
X55926480Y-108009850D01*
X55913868Y-108030893D01*
X55899253Y-108050599D01*
X55882777Y-108068777D01*
X55864599Y-108085253D01*
X55844893Y-108099868D01*
X55823850Y-108112480D01*
X55801671Y-108122970D01*
X55778572Y-108131235D01*
X55754773Y-108137196D01*
X55730505Y-108140796D01*
X55706001Y-108142000D01*
X55055999Y-108142000D01*
X55031495Y-108140796D01*
X55007227Y-108137196D01*
X54983428Y-108131235D01*
X54960329Y-108122970D01*
X54938150Y-108112480D01*
X54917107Y-108099868D01*
X54897401Y-108085253D01*
X54879223Y-108068777D01*
X54862747Y-108050599D01*
X54848132Y-108030893D01*
X54835520Y-108009850D01*
X54825030Y-107987671D01*
X54816765Y-107964572D01*
X54810804Y-107940773D01*
X54807204Y-107916505D01*
X54806000Y-107892001D01*
X54806000Y-106991999D01*
X54807204Y-106967495D01*
X54810804Y-106943227D01*
X54816765Y-106919428D01*
X54825030Y-106896329D01*
X54835520Y-106874150D01*
X54848132Y-106853107D01*
X54862747Y-106833401D01*
X54879223Y-106815223D01*
X54897401Y-106798747D01*
X54917107Y-106784132D01*
X54938150Y-106771520D01*
X54960329Y-106761030D01*
X54983428Y-106752765D01*
X55007227Y-106746804D01*
X55031495Y-106743204D01*
X55055999Y-106742000D01*
X55706001Y-106742000D01*
X55730505Y-106743204D01*
X55730505Y-106743204D01*
G37*
D14*
X55381000Y-107442000D03*
G04 #@! TD*
D13*
G04 #@! TO.C,R3*
G36*
X68684505Y-110299204D02*
X68708773Y-110302804D01*
X68732572Y-110308765D01*
X68755671Y-110317030D01*
X68777850Y-110327520D01*
X68798893Y-110340132D01*
X68818599Y-110354747D01*
X68836777Y-110371223D01*
X68853253Y-110389401D01*
X68867868Y-110409107D01*
X68880480Y-110430150D01*
X68890970Y-110452329D01*
X68899235Y-110475428D01*
X68905196Y-110499227D01*
X68908796Y-110523495D01*
X68910000Y-110547999D01*
X68910000Y-111448001D01*
X68908796Y-111472505D01*
X68905196Y-111496773D01*
X68899235Y-111520572D01*
X68890970Y-111543671D01*
X68880480Y-111565850D01*
X68867868Y-111586893D01*
X68853253Y-111606599D01*
X68836777Y-111624777D01*
X68818599Y-111641253D01*
X68798893Y-111655868D01*
X68777850Y-111668480D01*
X68755671Y-111678970D01*
X68732572Y-111687235D01*
X68708773Y-111693196D01*
X68684505Y-111696796D01*
X68660001Y-111698000D01*
X68009999Y-111698000D01*
X67985495Y-111696796D01*
X67961227Y-111693196D01*
X67937428Y-111687235D01*
X67914329Y-111678970D01*
X67892150Y-111668480D01*
X67871107Y-111655868D01*
X67851401Y-111641253D01*
X67833223Y-111624777D01*
X67816747Y-111606599D01*
X67802132Y-111586893D01*
X67789520Y-111565850D01*
X67779030Y-111543671D01*
X67770765Y-111520572D01*
X67764804Y-111496773D01*
X67761204Y-111472505D01*
X67760000Y-111448001D01*
X67760000Y-110547999D01*
X67761204Y-110523495D01*
X67764804Y-110499227D01*
X67770765Y-110475428D01*
X67779030Y-110452329D01*
X67789520Y-110430150D01*
X67802132Y-110409107D01*
X67816747Y-110389401D01*
X67833223Y-110371223D01*
X67851401Y-110354747D01*
X67871107Y-110340132D01*
X67892150Y-110327520D01*
X67914329Y-110317030D01*
X67937428Y-110308765D01*
X67961227Y-110302804D01*
X67985495Y-110299204D01*
X68009999Y-110298000D01*
X68660001Y-110298000D01*
X68684505Y-110299204D01*
X68684505Y-110299204D01*
G37*
D14*
X68335000Y-110998000D03*
D13*
G36*
X66634505Y-110299204D02*
X66658773Y-110302804D01*
X66682572Y-110308765D01*
X66705671Y-110317030D01*
X66727850Y-110327520D01*
X66748893Y-110340132D01*
X66768599Y-110354747D01*
X66786777Y-110371223D01*
X66803253Y-110389401D01*
X66817868Y-110409107D01*
X66830480Y-110430150D01*
X66840970Y-110452329D01*
X66849235Y-110475428D01*
X66855196Y-110499227D01*
X66858796Y-110523495D01*
X66860000Y-110547999D01*
X66860000Y-111448001D01*
X66858796Y-111472505D01*
X66855196Y-111496773D01*
X66849235Y-111520572D01*
X66840970Y-111543671D01*
X66830480Y-111565850D01*
X66817868Y-111586893D01*
X66803253Y-111606599D01*
X66786777Y-111624777D01*
X66768599Y-111641253D01*
X66748893Y-111655868D01*
X66727850Y-111668480D01*
X66705671Y-111678970D01*
X66682572Y-111687235D01*
X66658773Y-111693196D01*
X66634505Y-111696796D01*
X66610001Y-111698000D01*
X65959999Y-111698000D01*
X65935495Y-111696796D01*
X65911227Y-111693196D01*
X65887428Y-111687235D01*
X65864329Y-111678970D01*
X65842150Y-111668480D01*
X65821107Y-111655868D01*
X65801401Y-111641253D01*
X65783223Y-111624777D01*
X65766747Y-111606599D01*
X65752132Y-111586893D01*
X65739520Y-111565850D01*
X65729030Y-111543671D01*
X65720765Y-111520572D01*
X65714804Y-111496773D01*
X65711204Y-111472505D01*
X65710000Y-111448001D01*
X65710000Y-110547999D01*
X65711204Y-110523495D01*
X65714804Y-110499227D01*
X65720765Y-110475428D01*
X65729030Y-110452329D01*
X65739520Y-110430150D01*
X65752132Y-110409107D01*
X65766747Y-110389401D01*
X65783223Y-110371223D01*
X65801401Y-110354747D01*
X65821107Y-110340132D01*
X65842150Y-110327520D01*
X65864329Y-110317030D01*
X65887428Y-110308765D01*
X65911227Y-110302804D01*
X65935495Y-110299204D01*
X65959999Y-110298000D01*
X66610001Y-110298000D01*
X66634505Y-110299204D01*
X66634505Y-110299204D01*
G37*
D14*
X66285000Y-110998000D03*
G04 #@! TD*
D20*
G04 #@! TO.C,U3*
X113570000Y-121554000D03*
X113570000Y-120284000D03*
X113570000Y-119014000D03*
X113570000Y-117744000D03*
X113570000Y-116474000D03*
X113570000Y-115204000D03*
X113570000Y-113934000D03*
X113570000Y-112664000D03*
X113570000Y-111394000D03*
X113570000Y-110124000D03*
X113570000Y-108854000D03*
X113570000Y-107584000D03*
X130270000Y-107584000D03*
X130270000Y-108854000D03*
G04 #@! TD*
D21*
G04 #@! TO.C,U4*
X99424000Y-106256000D03*
X99424000Y-107526000D03*
X99424000Y-108796000D03*
X99424000Y-110066000D03*
X99424000Y-111336000D03*
X99424000Y-112606000D03*
X99424000Y-113876000D03*
X99424000Y-115146000D03*
X99424000Y-116416000D03*
X99424000Y-117686000D03*
X99424000Y-118956000D03*
X99424000Y-120226000D03*
X99424000Y-121496000D03*
X99424000Y-122766000D03*
D22*
X96139000Y-124256000D03*
X94869000Y-124256000D03*
X93599000Y-124256000D03*
X92329000Y-124256000D03*
X91059000Y-124256000D03*
X89789000Y-124256000D03*
X88519000Y-124256000D03*
X87249000Y-124256000D03*
X85979000Y-124256000D03*
X84709000Y-124256000D03*
D21*
X81424000Y-122766000D03*
X81424000Y-121496000D03*
X81424000Y-120226000D03*
X81424000Y-118956000D03*
X81424000Y-117686000D03*
X81424000Y-116416000D03*
X81424000Y-115146000D03*
X81424000Y-113876000D03*
X81424000Y-112606000D03*
X81424000Y-111336000D03*
X81424000Y-110066000D03*
X81424000Y-108796000D03*
X81424000Y-107526000D03*
X81424000Y-106256000D03*
D23*
X90124000Y-113956000D03*
G04 #@! TD*
D24*
G04 #@! TO.C,U2*
X50570000Y-113210000D03*
X51070000Y-113210000D03*
X51570000Y-113210000D03*
X52070000Y-113210000D03*
X52570000Y-113210000D03*
X53070000Y-113210000D03*
X53570000Y-113210000D03*
D25*
X54430000Y-114070000D03*
X54430000Y-114570000D03*
X54430000Y-115070000D03*
X54430000Y-115570000D03*
X54430000Y-116070000D03*
X54430000Y-116570000D03*
X54430000Y-117070000D03*
D24*
X53570000Y-117930000D03*
X53070000Y-117930000D03*
X52570000Y-117930000D03*
X52070000Y-117930000D03*
X51570000Y-117930000D03*
X51070000Y-117930000D03*
X50570000Y-117930000D03*
D25*
X49710000Y-117070000D03*
X49710000Y-116570000D03*
X49710000Y-116070000D03*
X49710000Y-115570000D03*
X49710000Y-115070000D03*
X49710000Y-114570000D03*
X49710000Y-114070000D03*
G04 #@! TD*
M02*
