G04 #@! TF.GenerationSoftware,KiCad,Pcbnew,5.0.2+dfsg1-1*
G04 #@! TF.CreationDate,2021-02-25T16:07:11+01:00*
G04 #@! TF.ProjectId,Pager-Interface (KiCAD),50616765-722d-4496-9e74-657266616365,rev?*
G04 #@! TF.SameCoordinates,Original*
G04 #@! TF.FileFunction,Soldermask,Top*
G04 #@! TF.FilePolarity,Negative*
%FSLAX46Y46*%
G04 Gerber Fmt 4.6, Leading zero omitted, Abs format (unit mm)*
G04 Created by KiCad (PCBNEW 5.0.2+dfsg1-1) date Thu 25 Feb 2021 16:07:11 CET*
%MOMM*%
%LPD*%
G01*
G04 APERTURE LIST*
%ADD10C,0.100000*%
G04 APERTURE END LIST*
D10*
G36*
X134634239Y-122811467D02*
X134948282Y-122873934D01*
X135539926Y-123119001D01*
X135897294Y-123357787D01*
X136072395Y-123474786D01*
X136525214Y-123927605D01*
X136525216Y-123927608D01*
X136880999Y-124460074D01*
X137126066Y-125051718D01*
X137165238Y-125248651D01*
X137245215Y-125650718D01*
X137251000Y-125679804D01*
X137251000Y-126320196D01*
X137126066Y-126948282D01*
X136880999Y-127539926D01*
X136527615Y-128068802D01*
X136525214Y-128072395D01*
X136072395Y-128525214D01*
X136072392Y-128525216D01*
X135539926Y-128880999D01*
X134948282Y-129126066D01*
X134634239Y-129188533D01*
X134320197Y-129251000D01*
X133679803Y-129251000D01*
X133365761Y-129188533D01*
X133051718Y-129126066D01*
X132460074Y-128880999D01*
X131927608Y-128525216D01*
X131927605Y-128525214D01*
X131474786Y-128072395D01*
X131472385Y-128068802D01*
X131119001Y-127539926D01*
X130873934Y-126948282D01*
X130749000Y-126320196D01*
X130749000Y-125679804D01*
X130754786Y-125650718D01*
X130834762Y-125248651D01*
X130873934Y-125051718D01*
X131119001Y-124460074D01*
X131474784Y-123927608D01*
X131474786Y-123927605D01*
X131927605Y-123474786D01*
X132102706Y-123357787D01*
X132460074Y-123119001D01*
X133051718Y-122873934D01*
X133365761Y-122811467D01*
X133679803Y-122749000D01*
X134320197Y-122749000D01*
X134634239Y-122811467D01*
X134634239Y-122811467D01*
G37*
G36*
X68633000Y-127137000D02*
X67031000Y-127137000D01*
X67031000Y-125035000D01*
X68633000Y-125035000D01*
X68633000Y-127137000D01*
X68633000Y-127137000D01*
G37*
G36*
X64033000Y-127137000D02*
X62431000Y-127137000D01*
X62431000Y-125035000D01*
X64033000Y-125035000D01*
X64033000Y-127137000D01*
X64033000Y-127137000D01*
G37*
G36*
X66333000Y-127137000D02*
X64731000Y-127137000D01*
X64731000Y-125035000D01*
X66333000Y-125035000D01*
X66333000Y-127137000D01*
X66333000Y-127137000D01*
G37*
G36*
X74248677Y-125634465D02*
X74286364Y-125645898D01*
X74321103Y-125664466D01*
X74351548Y-125689452D01*
X74376534Y-125719897D01*
X74395102Y-125754636D01*
X74406535Y-125792323D01*
X74411000Y-125837661D01*
X74411000Y-126674339D01*
X74406535Y-126719677D01*
X74395102Y-126757364D01*
X74376534Y-126792103D01*
X74351548Y-126822548D01*
X74321103Y-126847534D01*
X74286364Y-126866102D01*
X74248677Y-126877535D01*
X74203339Y-126882000D01*
X73116661Y-126882000D01*
X73071323Y-126877535D01*
X73033636Y-126866102D01*
X72998897Y-126847534D01*
X72968452Y-126822548D01*
X72943466Y-126792103D01*
X72924898Y-126757364D01*
X72913465Y-126719677D01*
X72909000Y-126674339D01*
X72909000Y-125837661D01*
X72913465Y-125792323D01*
X72924898Y-125754636D01*
X72943466Y-125719897D01*
X72968452Y-125689452D01*
X72998897Y-125664466D01*
X73033636Y-125645898D01*
X73071323Y-125634465D01*
X73116661Y-125630000D01*
X74203339Y-125630000D01*
X74248677Y-125634465D01*
X74248677Y-125634465D01*
G37*
G36*
X48714677Y-124221465D02*
X48752364Y-124232898D01*
X48787103Y-124251466D01*
X48817548Y-124276452D01*
X48842534Y-124306897D01*
X48861102Y-124341636D01*
X48872535Y-124379323D01*
X48877000Y-124424661D01*
X48877000Y-125511339D01*
X48872535Y-125556677D01*
X48861102Y-125594364D01*
X48842534Y-125629103D01*
X48817548Y-125659548D01*
X48787103Y-125684534D01*
X48752364Y-125703102D01*
X48714677Y-125714535D01*
X48669339Y-125719000D01*
X47832661Y-125719000D01*
X47787323Y-125714535D01*
X47749636Y-125703102D01*
X47714897Y-125684534D01*
X47684452Y-125659548D01*
X47659466Y-125629103D01*
X47640898Y-125594364D01*
X47629465Y-125556677D01*
X47625000Y-125511339D01*
X47625000Y-124424661D01*
X47629465Y-124379323D01*
X47640898Y-124341636D01*
X47659466Y-124306897D01*
X47684452Y-124276452D01*
X47714897Y-124251466D01*
X47749636Y-124232898D01*
X47787323Y-124221465D01*
X47832661Y-124217000D01*
X48669339Y-124217000D01*
X48714677Y-124221465D01*
X48714677Y-124221465D01*
G37*
G36*
X55327677Y-124221465D02*
X55365364Y-124232898D01*
X55400103Y-124251466D01*
X55430548Y-124276452D01*
X55455534Y-124306897D01*
X55474102Y-124341636D01*
X55485535Y-124379323D01*
X55490000Y-124424661D01*
X55490000Y-125511339D01*
X55485535Y-125556677D01*
X55474102Y-125594364D01*
X55455534Y-125629103D01*
X55430548Y-125659548D01*
X55400103Y-125684534D01*
X55365364Y-125703102D01*
X55327677Y-125714535D01*
X55282339Y-125719000D01*
X54445661Y-125719000D01*
X54400323Y-125714535D01*
X54362636Y-125703102D01*
X54327897Y-125684534D01*
X54297452Y-125659548D01*
X54272466Y-125629103D01*
X54253898Y-125594364D01*
X54242465Y-125556677D01*
X54238000Y-125511339D01*
X54238000Y-124424661D01*
X54242465Y-124379323D01*
X54253898Y-124341636D01*
X54272466Y-124306897D01*
X54297452Y-124276452D01*
X54327897Y-124251466D01*
X54362636Y-124232898D01*
X54400323Y-124221465D01*
X54445661Y-124217000D01*
X55282339Y-124217000D01*
X55327677Y-124221465D01*
X55327677Y-124221465D01*
G37*
G36*
X57377677Y-124221465D02*
X57415364Y-124232898D01*
X57450103Y-124251466D01*
X57480548Y-124276452D01*
X57505534Y-124306897D01*
X57524102Y-124341636D01*
X57535535Y-124379323D01*
X57540000Y-124424661D01*
X57540000Y-125511339D01*
X57535535Y-125556677D01*
X57524102Y-125594364D01*
X57505534Y-125629103D01*
X57480548Y-125659548D01*
X57450103Y-125684534D01*
X57415364Y-125703102D01*
X57377677Y-125714535D01*
X57332339Y-125719000D01*
X56495661Y-125719000D01*
X56450323Y-125714535D01*
X56412636Y-125703102D01*
X56377897Y-125684534D01*
X56347452Y-125659548D01*
X56322466Y-125629103D01*
X56303898Y-125594364D01*
X56292465Y-125556677D01*
X56288000Y-125511339D01*
X56288000Y-124424661D01*
X56292465Y-124379323D01*
X56303898Y-124341636D01*
X56322466Y-124306897D01*
X56347452Y-124276452D01*
X56377897Y-124251466D01*
X56412636Y-124232898D01*
X56450323Y-124221465D01*
X56495661Y-124217000D01*
X57332339Y-124217000D01*
X57377677Y-124221465D01*
X57377677Y-124221465D01*
G37*
G36*
X50764677Y-124221465D02*
X50802364Y-124232898D01*
X50837103Y-124251466D01*
X50867548Y-124276452D01*
X50892534Y-124306897D01*
X50911102Y-124341636D01*
X50922535Y-124379323D01*
X50927000Y-124424661D01*
X50927000Y-125511339D01*
X50922535Y-125556677D01*
X50911102Y-125594364D01*
X50892534Y-125629103D01*
X50867548Y-125659548D01*
X50837103Y-125684534D01*
X50802364Y-125703102D01*
X50764677Y-125714535D01*
X50719339Y-125719000D01*
X49882661Y-125719000D01*
X49837323Y-125714535D01*
X49799636Y-125703102D01*
X49764897Y-125684534D01*
X49734452Y-125659548D01*
X49709466Y-125629103D01*
X49690898Y-125594364D01*
X49679465Y-125556677D01*
X49675000Y-125511339D01*
X49675000Y-124424661D01*
X49679465Y-124379323D01*
X49690898Y-124341636D01*
X49709466Y-124306897D01*
X49734452Y-124276452D01*
X49764897Y-124251466D01*
X49799636Y-124232898D01*
X49837323Y-124221465D01*
X49882661Y-124217000D01*
X50719339Y-124217000D01*
X50764677Y-124221465D01*
X50764677Y-124221465D01*
G37*
G36*
X93697213Y-122962249D02*
X93791652Y-122990897D01*
X93878687Y-123037418D01*
X93954975Y-123100025D01*
X94017582Y-123176313D01*
X94064103Y-123263348D01*
X94092751Y-123357787D01*
X94100000Y-123431388D01*
X94100000Y-125080612D01*
X94092751Y-125154213D01*
X94064103Y-125248652D01*
X94017582Y-125335687D01*
X93954975Y-125411975D01*
X93878687Y-125474582D01*
X93791651Y-125521103D01*
X93697212Y-125549751D01*
X93599000Y-125559424D01*
X93500787Y-125549751D01*
X93406348Y-125521103D01*
X93319313Y-125474582D01*
X93243025Y-125411975D01*
X93180418Y-125335687D01*
X93133897Y-125248651D01*
X93105249Y-125154212D01*
X93098000Y-125080611D01*
X93098001Y-123431388D01*
X93105250Y-123357787D01*
X93133898Y-123263348D01*
X93180419Y-123176313D01*
X93243026Y-123100025D01*
X93319314Y-123037418D01*
X93406349Y-122990897D01*
X93500788Y-122962249D01*
X93599000Y-122952576D01*
X93697213Y-122962249D01*
X93697213Y-122962249D01*
G37*
G36*
X92427213Y-122962249D02*
X92521652Y-122990897D01*
X92608687Y-123037418D01*
X92684975Y-123100025D01*
X92747582Y-123176313D01*
X92794103Y-123263348D01*
X92822751Y-123357787D01*
X92830000Y-123431388D01*
X92830000Y-125080612D01*
X92822751Y-125154213D01*
X92794103Y-125248652D01*
X92747582Y-125335687D01*
X92684975Y-125411975D01*
X92608687Y-125474582D01*
X92521651Y-125521103D01*
X92427212Y-125549751D01*
X92329000Y-125559424D01*
X92230787Y-125549751D01*
X92136348Y-125521103D01*
X92049313Y-125474582D01*
X91973025Y-125411975D01*
X91910418Y-125335687D01*
X91863897Y-125248651D01*
X91835249Y-125154212D01*
X91828000Y-125080611D01*
X91828001Y-123431388D01*
X91835250Y-123357787D01*
X91863898Y-123263348D01*
X91910419Y-123176313D01*
X91973026Y-123100025D01*
X92049314Y-123037418D01*
X92136349Y-122990897D01*
X92230788Y-122962249D01*
X92329000Y-122952576D01*
X92427213Y-122962249D01*
X92427213Y-122962249D01*
G37*
G36*
X94967213Y-122962249D02*
X95061652Y-122990897D01*
X95148687Y-123037418D01*
X95224975Y-123100025D01*
X95287582Y-123176313D01*
X95334103Y-123263348D01*
X95362751Y-123357787D01*
X95370000Y-123431388D01*
X95370000Y-125080612D01*
X95362751Y-125154213D01*
X95334103Y-125248652D01*
X95287582Y-125335687D01*
X95224975Y-125411975D01*
X95148687Y-125474582D01*
X95061651Y-125521103D01*
X94967212Y-125549751D01*
X94869000Y-125559424D01*
X94770787Y-125549751D01*
X94676348Y-125521103D01*
X94589313Y-125474582D01*
X94513025Y-125411975D01*
X94450418Y-125335687D01*
X94403897Y-125248651D01*
X94375249Y-125154212D01*
X94368000Y-125080611D01*
X94368001Y-123431388D01*
X94375250Y-123357787D01*
X94403898Y-123263348D01*
X94450419Y-123176313D01*
X94513026Y-123100025D01*
X94589314Y-123037418D01*
X94676349Y-122990897D01*
X94770788Y-122962249D01*
X94869000Y-122952576D01*
X94967213Y-122962249D01*
X94967213Y-122962249D01*
G37*
G36*
X96237213Y-122962249D02*
X96331652Y-122990897D01*
X96418687Y-123037418D01*
X96494975Y-123100025D01*
X96557582Y-123176313D01*
X96604103Y-123263348D01*
X96632751Y-123357787D01*
X96640000Y-123431388D01*
X96640000Y-125080612D01*
X96632751Y-125154213D01*
X96604103Y-125248652D01*
X96557582Y-125335687D01*
X96494975Y-125411975D01*
X96418687Y-125474582D01*
X96331651Y-125521103D01*
X96237212Y-125549751D01*
X96139000Y-125559424D01*
X96040787Y-125549751D01*
X95946348Y-125521103D01*
X95859313Y-125474582D01*
X95783025Y-125411975D01*
X95720418Y-125335687D01*
X95673897Y-125248651D01*
X95645249Y-125154212D01*
X95638000Y-125080611D01*
X95638001Y-123431388D01*
X95645250Y-123357787D01*
X95673898Y-123263348D01*
X95720419Y-123176313D01*
X95783026Y-123100025D01*
X95859314Y-123037418D01*
X95946349Y-122990897D01*
X96040788Y-122962249D01*
X96139000Y-122952576D01*
X96237213Y-122962249D01*
X96237213Y-122962249D01*
G37*
G36*
X89887213Y-122962249D02*
X89981652Y-122990897D01*
X90068687Y-123037418D01*
X90144975Y-123100025D01*
X90207582Y-123176313D01*
X90254103Y-123263348D01*
X90282751Y-123357787D01*
X90290000Y-123431388D01*
X90290000Y-125080612D01*
X90282751Y-125154213D01*
X90254103Y-125248652D01*
X90207582Y-125335687D01*
X90144975Y-125411975D01*
X90068687Y-125474582D01*
X89981651Y-125521103D01*
X89887212Y-125549751D01*
X89789000Y-125559424D01*
X89690787Y-125549751D01*
X89596348Y-125521103D01*
X89509313Y-125474582D01*
X89433025Y-125411975D01*
X89370418Y-125335687D01*
X89323897Y-125248651D01*
X89295249Y-125154212D01*
X89288000Y-125080611D01*
X89288001Y-123431388D01*
X89295250Y-123357787D01*
X89323898Y-123263348D01*
X89370419Y-123176313D01*
X89433026Y-123100025D01*
X89509314Y-123037418D01*
X89596349Y-122990897D01*
X89690788Y-122962249D01*
X89789000Y-122952576D01*
X89887213Y-122962249D01*
X89887213Y-122962249D01*
G37*
G36*
X88617213Y-122962249D02*
X88711652Y-122990897D01*
X88798687Y-123037418D01*
X88874975Y-123100025D01*
X88937582Y-123176313D01*
X88984103Y-123263348D01*
X89012751Y-123357787D01*
X89020000Y-123431388D01*
X89020000Y-125080612D01*
X89012751Y-125154213D01*
X88984103Y-125248652D01*
X88937582Y-125335687D01*
X88874975Y-125411975D01*
X88798687Y-125474582D01*
X88711651Y-125521103D01*
X88617212Y-125549751D01*
X88519000Y-125559424D01*
X88420787Y-125549751D01*
X88326348Y-125521103D01*
X88239313Y-125474582D01*
X88163025Y-125411975D01*
X88100418Y-125335687D01*
X88053897Y-125248651D01*
X88025249Y-125154212D01*
X88018000Y-125080611D01*
X88018001Y-123431388D01*
X88025250Y-123357787D01*
X88053898Y-123263348D01*
X88100419Y-123176313D01*
X88163026Y-123100025D01*
X88239314Y-123037418D01*
X88326349Y-122990897D01*
X88420788Y-122962249D01*
X88519000Y-122952576D01*
X88617213Y-122962249D01*
X88617213Y-122962249D01*
G37*
G36*
X87347213Y-122962249D02*
X87441652Y-122990897D01*
X87528687Y-123037418D01*
X87604975Y-123100025D01*
X87667582Y-123176313D01*
X87714103Y-123263348D01*
X87742751Y-123357787D01*
X87750000Y-123431388D01*
X87750000Y-125080612D01*
X87742751Y-125154213D01*
X87714103Y-125248652D01*
X87667582Y-125335687D01*
X87604975Y-125411975D01*
X87528687Y-125474582D01*
X87441651Y-125521103D01*
X87347212Y-125549751D01*
X87249000Y-125559424D01*
X87150787Y-125549751D01*
X87056348Y-125521103D01*
X86969313Y-125474582D01*
X86893025Y-125411975D01*
X86830418Y-125335687D01*
X86783897Y-125248651D01*
X86755249Y-125154212D01*
X86748000Y-125080611D01*
X86748001Y-123431388D01*
X86755250Y-123357787D01*
X86783898Y-123263348D01*
X86830419Y-123176313D01*
X86893026Y-123100025D01*
X86969314Y-123037418D01*
X87056349Y-122990897D01*
X87150788Y-122962249D01*
X87249000Y-122952576D01*
X87347213Y-122962249D01*
X87347213Y-122962249D01*
G37*
G36*
X86077213Y-122962249D02*
X86171652Y-122990897D01*
X86258687Y-123037418D01*
X86334975Y-123100025D01*
X86397582Y-123176313D01*
X86444103Y-123263348D01*
X86472751Y-123357787D01*
X86480000Y-123431388D01*
X86480000Y-125080612D01*
X86472751Y-125154213D01*
X86444103Y-125248652D01*
X86397582Y-125335687D01*
X86334975Y-125411975D01*
X86258687Y-125474582D01*
X86171651Y-125521103D01*
X86077212Y-125549751D01*
X85979000Y-125559424D01*
X85880787Y-125549751D01*
X85786348Y-125521103D01*
X85699313Y-125474582D01*
X85623025Y-125411975D01*
X85560418Y-125335687D01*
X85513897Y-125248651D01*
X85485249Y-125154212D01*
X85478000Y-125080611D01*
X85478001Y-123431388D01*
X85485250Y-123357787D01*
X85513898Y-123263348D01*
X85560419Y-123176313D01*
X85623026Y-123100025D01*
X85699314Y-123037418D01*
X85786349Y-122990897D01*
X85880788Y-122962249D01*
X85979000Y-122952576D01*
X86077213Y-122962249D01*
X86077213Y-122962249D01*
G37*
G36*
X84807213Y-122962249D02*
X84901652Y-122990897D01*
X84988687Y-123037418D01*
X85064975Y-123100025D01*
X85127582Y-123176313D01*
X85174103Y-123263348D01*
X85202751Y-123357787D01*
X85210000Y-123431388D01*
X85210000Y-125080612D01*
X85202751Y-125154213D01*
X85174103Y-125248652D01*
X85127582Y-125335687D01*
X85064975Y-125411975D01*
X84988687Y-125474582D01*
X84901651Y-125521103D01*
X84807212Y-125549751D01*
X84709000Y-125559424D01*
X84610787Y-125549751D01*
X84516348Y-125521103D01*
X84429313Y-125474582D01*
X84353025Y-125411975D01*
X84290418Y-125335687D01*
X84243897Y-125248651D01*
X84215249Y-125154212D01*
X84208000Y-125080611D01*
X84208001Y-123431388D01*
X84215250Y-123357787D01*
X84243898Y-123263348D01*
X84290419Y-123176313D01*
X84353026Y-123100025D01*
X84429314Y-123037418D01*
X84516349Y-122990897D01*
X84610788Y-122962249D01*
X84709000Y-122952576D01*
X84807213Y-122962249D01*
X84807213Y-122962249D01*
G37*
G36*
X91157213Y-122962249D02*
X91251652Y-122990897D01*
X91338687Y-123037418D01*
X91414975Y-123100025D01*
X91477582Y-123176313D01*
X91524103Y-123263348D01*
X91552751Y-123357787D01*
X91560000Y-123431388D01*
X91560000Y-125080612D01*
X91552751Y-125154213D01*
X91524103Y-125248652D01*
X91477582Y-125335687D01*
X91414975Y-125411975D01*
X91338687Y-125474582D01*
X91251651Y-125521103D01*
X91157212Y-125549751D01*
X91059000Y-125559424D01*
X90960787Y-125549751D01*
X90866348Y-125521103D01*
X90779313Y-125474582D01*
X90703025Y-125411975D01*
X90640418Y-125335687D01*
X90593897Y-125248651D01*
X90565249Y-125154212D01*
X90558000Y-125080611D01*
X90558001Y-123431388D01*
X90565250Y-123357787D01*
X90593898Y-123263348D01*
X90640419Y-123176313D01*
X90703026Y-123100025D01*
X90779314Y-123037418D01*
X90866349Y-122990897D01*
X90960788Y-122962249D01*
X91059000Y-122952576D01*
X91157213Y-122962249D01*
X91157213Y-122962249D01*
G37*
G36*
X74248677Y-123584465D02*
X74286364Y-123595898D01*
X74321103Y-123614466D01*
X74351548Y-123639452D01*
X74376534Y-123669897D01*
X74395102Y-123704636D01*
X74406535Y-123742323D01*
X74411000Y-123787661D01*
X74411000Y-124624339D01*
X74406535Y-124669677D01*
X74395102Y-124707364D01*
X74376534Y-124742103D01*
X74351548Y-124772548D01*
X74321103Y-124797534D01*
X74286364Y-124816102D01*
X74248677Y-124827535D01*
X74203339Y-124832000D01*
X73116661Y-124832000D01*
X73071323Y-124827535D01*
X73033636Y-124816102D01*
X72998897Y-124797534D01*
X72968452Y-124772548D01*
X72943466Y-124742103D01*
X72924898Y-124707364D01*
X72913465Y-124669677D01*
X72909000Y-124624339D01*
X72909000Y-123787661D01*
X72913465Y-123742323D01*
X72924898Y-123704636D01*
X72943466Y-123669897D01*
X72968452Y-123639452D01*
X72998897Y-123614466D01*
X73033636Y-123595898D01*
X73071323Y-123584465D01*
X73116661Y-123580000D01*
X74203339Y-123580000D01*
X74248677Y-123584465D01*
X74248677Y-123584465D01*
G37*
G36*
X100322213Y-122272249D02*
X100416652Y-122300897D01*
X100503687Y-122347418D01*
X100579975Y-122410025D01*
X100642582Y-122486313D01*
X100689103Y-122573348D01*
X100717751Y-122667787D01*
X100727424Y-122766000D01*
X100717751Y-122864213D01*
X100689103Y-122958652D01*
X100642582Y-123045687D01*
X100579975Y-123121975D01*
X100503687Y-123184582D01*
X100416652Y-123231103D01*
X100322213Y-123259751D01*
X100248612Y-123267000D01*
X98599388Y-123267000D01*
X98525787Y-123259751D01*
X98431348Y-123231103D01*
X98344313Y-123184582D01*
X98268025Y-123121975D01*
X98205418Y-123045687D01*
X98158897Y-122958652D01*
X98130249Y-122864213D01*
X98120576Y-122766000D01*
X98130249Y-122667787D01*
X98158897Y-122573348D01*
X98205418Y-122486313D01*
X98268025Y-122410025D01*
X98344313Y-122347418D01*
X98431348Y-122300897D01*
X98525787Y-122272249D01*
X98599388Y-122265000D01*
X100248612Y-122265000D01*
X100322213Y-122272249D01*
X100322213Y-122272249D01*
G37*
G36*
X82322213Y-122272249D02*
X82416652Y-122300897D01*
X82503687Y-122347418D01*
X82579975Y-122410025D01*
X82642582Y-122486313D01*
X82689103Y-122573348D01*
X82717751Y-122667787D01*
X82727424Y-122766000D01*
X82717751Y-122864213D01*
X82689103Y-122958652D01*
X82642582Y-123045687D01*
X82579975Y-123121975D01*
X82503687Y-123184582D01*
X82416652Y-123231103D01*
X82322213Y-123259751D01*
X82248612Y-123267000D01*
X80599388Y-123267000D01*
X80525787Y-123259751D01*
X80431348Y-123231103D01*
X80344313Y-123184582D01*
X80268025Y-123121975D01*
X80205418Y-123045687D01*
X80158897Y-122958652D01*
X80130249Y-122864213D01*
X80120576Y-122766000D01*
X80130249Y-122667787D01*
X80158897Y-122573348D01*
X80205418Y-122486313D01*
X80268025Y-122410025D01*
X80344313Y-122347418D01*
X80431348Y-122300897D01*
X80525787Y-122272249D01*
X80599388Y-122265000D01*
X82248612Y-122265000D01*
X82322213Y-122272249D01*
X82322213Y-122272249D01*
G37*
G36*
X48705677Y-120665465D02*
X48743364Y-120676898D01*
X48778103Y-120695466D01*
X48808548Y-120720452D01*
X48833534Y-120750897D01*
X48852102Y-120785636D01*
X48863535Y-120823323D01*
X48868000Y-120868661D01*
X48868000Y-121955339D01*
X48863535Y-122000677D01*
X48852102Y-122038364D01*
X48833534Y-122073103D01*
X48808548Y-122103548D01*
X48778103Y-122128534D01*
X48743364Y-122147102D01*
X48705677Y-122158535D01*
X48660339Y-122163000D01*
X47823661Y-122163000D01*
X47778323Y-122158535D01*
X47740636Y-122147102D01*
X47705897Y-122128534D01*
X47675452Y-122103548D01*
X47650466Y-122073103D01*
X47631898Y-122038364D01*
X47620465Y-122000677D01*
X47616000Y-121955339D01*
X47616000Y-120868661D01*
X47620465Y-120823323D01*
X47631898Y-120785636D01*
X47650466Y-120750897D01*
X47675452Y-120720452D01*
X47705897Y-120695466D01*
X47740636Y-120676898D01*
X47778323Y-120665465D01*
X47823661Y-120661000D01*
X48660339Y-120661000D01*
X48705677Y-120665465D01*
X48705677Y-120665465D01*
G37*
G36*
X50755677Y-120665465D02*
X50793364Y-120676898D01*
X50828103Y-120695466D01*
X50858548Y-120720452D01*
X50883534Y-120750897D01*
X50902102Y-120785636D01*
X50913535Y-120823323D01*
X50918000Y-120868661D01*
X50918000Y-121955339D01*
X50913535Y-122000677D01*
X50902102Y-122038364D01*
X50883534Y-122073103D01*
X50858548Y-122103548D01*
X50828103Y-122128534D01*
X50793364Y-122147102D01*
X50755677Y-122158535D01*
X50710339Y-122163000D01*
X49873661Y-122163000D01*
X49828323Y-122158535D01*
X49790636Y-122147102D01*
X49755897Y-122128534D01*
X49725452Y-122103548D01*
X49700466Y-122073103D01*
X49681898Y-122038364D01*
X49670465Y-122000677D01*
X49666000Y-121955339D01*
X49666000Y-120868661D01*
X49670465Y-120823323D01*
X49681898Y-120785636D01*
X49700466Y-120750897D01*
X49725452Y-120720452D01*
X49755897Y-120695466D01*
X49790636Y-120676898D01*
X49828323Y-120665465D01*
X49873661Y-120661000D01*
X50710339Y-120661000D01*
X50755677Y-120665465D01*
X50755677Y-120665465D01*
G37*
G36*
X115121000Y-122005000D02*
X112019000Y-122005000D01*
X112019000Y-121103000D01*
X115121000Y-121103000D01*
X115121000Y-122005000D01*
X115121000Y-122005000D01*
G37*
G36*
X82322213Y-121002249D02*
X82416652Y-121030897D01*
X82503687Y-121077418D01*
X82579975Y-121140025D01*
X82642582Y-121216313D01*
X82689103Y-121303348D01*
X82717751Y-121397787D01*
X82727424Y-121496000D01*
X82717751Y-121594213D01*
X82689103Y-121688652D01*
X82642582Y-121775687D01*
X82579975Y-121851975D01*
X82503687Y-121914582D01*
X82416652Y-121961103D01*
X82322213Y-121989751D01*
X82248612Y-121997000D01*
X80599388Y-121997000D01*
X80525787Y-121989751D01*
X80431348Y-121961103D01*
X80344313Y-121914582D01*
X80268025Y-121851975D01*
X80205418Y-121775687D01*
X80158897Y-121688652D01*
X80130249Y-121594213D01*
X80120576Y-121496000D01*
X80130249Y-121397787D01*
X80158897Y-121303348D01*
X80205418Y-121216313D01*
X80268025Y-121140025D01*
X80344313Y-121077418D01*
X80431348Y-121030897D01*
X80525787Y-121002249D01*
X80599388Y-120995000D01*
X82248612Y-120995000D01*
X82322213Y-121002249D01*
X82322213Y-121002249D01*
G37*
G36*
X100322213Y-121002249D02*
X100416652Y-121030897D01*
X100503687Y-121077418D01*
X100579975Y-121140025D01*
X100642582Y-121216313D01*
X100689103Y-121303348D01*
X100717751Y-121397787D01*
X100727424Y-121496000D01*
X100717751Y-121594213D01*
X100689103Y-121688652D01*
X100642582Y-121775687D01*
X100579975Y-121851975D01*
X100503687Y-121914582D01*
X100416652Y-121961103D01*
X100322213Y-121989751D01*
X100248612Y-121997000D01*
X98599388Y-121997000D01*
X98525787Y-121989751D01*
X98431348Y-121961103D01*
X98344313Y-121914582D01*
X98268025Y-121851975D01*
X98205418Y-121775687D01*
X98158897Y-121688652D01*
X98130249Y-121594213D01*
X98120576Y-121496000D01*
X98130249Y-121397787D01*
X98158897Y-121303348D01*
X98205418Y-121216313D01*
X98268025Y-121140025D01*
X98344313Y-121077418D01*
X98431348Y-121030897D01*
X98525787Y-121002249D01*
X98599388Y-120995000D01*
X100248612Y-120995000D01*
X100322213Y-121002249D01*
X100322213Y-121002249D01*
G37*
G36*
X67483000Y-120837000D02*
X63581000Y-120837000D01*
X63581000Y-118735000D01*
X67483000Y-118735000D01*
X67483000Y-120837000D01*
X67483000Y-120837000D01*
G37*
G36*
X115121000Y-120735000D02*
X112019000Y-120735000D01*
X112019000Y-119833000D01*
X115121000Y-119833000D01*
X115121000Y-120735000D01*
X115121000Y-120735000D01*
G37*
G36*
X100322213Y-119732249D02*
X100416652Y-119760897D01*
X100503687Y-119807418D01*
X100579975Y-119870025D01*
X100642582Y-119946313D01*
X100689103Y-120033348D01*
X100717751Y-120127787D01*
X100727424Y-120226000D01*
X100717751Y-120324213D01*
X100689103Y-120418652D01*
X100642582Y-120505687D01*
X100579975Y-120581975D01*
X100503687Y-120644582D01*
X100416652Y-120691103D01*
X100322213Y-120719751D01*
X100248612Y-120727000D01*
X98599388Y-120727000D01*
X98525787Y-120719751D01*
X98431348Y-120691103D01*
X98344313Y-120644582D01*
X98268025Y-120581975D01*
X98205418Y-120505687D01*
X98158897Y-120418652D01*
X98130249Y-120324213D01*
X98120576Y-120226000D01*
X98130249Y-120127787D01*
X98158897Y-120033348D01*
X98205418Y-119946313D01*
X98268025Y-119870025D01*
X98344313Y-119807418D01*
X98431348Y-119760897D01*
X98525787Y-119732249D01*
X98599388Y-119725000D01*
X100248612Y-119725000D01*
X100322213Y-119732249D01*
X100322213Y-119732249D01*
G37*
G36*
X82322213Y-119732249D02*
X82416652Y-119760897D01*
X82503687Y-119807418D01*
X82579975Y-119870025D01*
X82642582Y-119946313D01*
X82689103Y-120033348D01*
X82717751Y-120127787D01*
X82727424Y-120226000D01*
X82717751Y-120324213D01*
X82689103Y-120418652D01*
X82642582Y-120505687D01*
X82579975Y-120581975D01*
X82503687Y-120644582D01*
X82416652Y-120691103D01*
X82322213Y-120719751D01*
X82248612Y-120727000D01*
X80599388Y-120727000D01*
X80525787Y-120719751D01*
X80431348Y-120691103D01*
X80344313Y-120644582D01*
X80268025Y-120581975D01*
X80205418Y-120505687D01*
X80158897Y-120418652D01*
X80130249Y-120324213D01*
X80120576Y-120226000D01*
X80130249Y-120127787D01*
X80158897Y-120033348D01*
X80205418Y-119946313D01*
X80268025Y-119870025D01*
X80344313Y-119807418D01*
X80431348Y-119760897D01*
X80525787Y-119732249D01*
X80599388Y-119725000D01*
X82248612Y-119725000D01*
X82322213Y-119732249D01*
X82322213Y-119732249D01*
G37*
G36*
X41247916Y-119007334D02*
X41356492Y-119040271D01*
X41456557Y-119093756D01*
X41544264Y-119165736D01*
X41616244Y-119253443D01*
X41669729Y-119353508D01*
X41702666Y-119462084D01*
X41713787Y-119575000D01*
X41702666Y-119687916D01*
X41669729Y-119796492D01*
X41616244Y-119896557D01*
X41544264Y-119984264D01*
X41456557Y-120056244D01*
X41356492Y-120109729D01*
X41247916Y-120142666D01*
X41163298Y-120151000D01*
X40256702Y-120151000D01*
X40172084Y-120142666D01*
X40063508Y-120109729D01*
X39963443Y-120056244D01*
X39875736Y-119984264D01*
X39803756Y-119896557D01*
X39750271Y-119796492D01*
X39717334Y-119687916D01*
X39706213Y-119575000D01*
X39717334Y-119462084D01*
X39750271Y-119353508D01*
X39803756Y-119253443D01*
X39875736Y-119165736D01*
X39963443Y-119093756D01*
X40063508Y-119040271D01*
X40172084Y-119007334D01*
X40256702Y-118999000D01*
X41163298Y-118999000D01*
X41247916Y-119007334D01*
X41247916Y-119007334D01*
G37*
G36*
X115121000Y-119465000D02*
X112019000Y-119465000D01*
X112019000Y-118563000D01*
X115121000Y-118563000D01*
X115121000Y-119465000D01*
X115121000Y-119465000D01*
G37*
G36*
X82322213Y-118462249D02*
X82416652Y-118490897D01*
X82503687Y-118537418D01*
X82579975Y-118600025D01*
X82642582Y-118676313D01*
X82689103Y-118763348D01*
X82717751Y-118857787D01*
X82727424Y-118956000D01*
X82717751Y-119054213D01*
X82689103Y-119148652D01*
X82642582Y-119235687D01*
X82579975Y-119311975D01*
X82503687Y-119374582D01*
X82416652Y-119421103D01*
X82322213Y-119449751D01*
X82248612Y-119457000D01*
X80599388Y-119457000D01*
X80525787Y-119449751D01*
X80431348Y-119421103D01*
X80344313Y-119374582D01*
X80268025Y-119311975D01*
X80205418Y-119235687D01*
X80158897Y-119148652D01*
X80130249Y-119054213D01*
X80120576Y-118956000D01*
X80130249Y-118857787D01*
X80158897Y-118763348D01*
X80205418Y-118676313D01*
X80268025Y-118600025D01*
X80344313Y-118537418D01*
X80431348Y-118490897D01*
X80525787Y-118462249D01*
X80599388Y-118455000D01*
X82248612Y-118455000D01*
X82322213Y-118462249D01*
X82322213Y-118462249D01*
G37*
G36*
X100322213Y-118462249D02*
X100416652Y-118490897D01*
X100503687Y-118537418D01*
X100579975Y-118600025D01*
X100642582Y-118676313D01*
X100689103Y-118763348D01*
X100717751Y-118857787D01*
X100727424Y-118956000D01*
X100717751Y-119054213D01*
X100689103Y-119148652D01*
X100642582Y-119235687D01*
X100579975Y-119311975D01*
X100503687Y-119374582D01*
X100416652Y-119421103D01*
X100322213Y-119449751D01*
X100248612Y-119457000D01*
X98599388Y-119457000D01*
X98525787Y-119449751D01*
X98431348Y-119421103D01*
X98344313Y-119374582D01*
X98268025Y-119311975D01*
X98205418Y-119235687D01*
X98158897Y-119148652D01*
X98130249Y-119054213D01*
X98120576Y-118956000D01*
X98130249Y-118857787D01*
X98158897Y-118763348D01*
X98205418Y-118676313D01*
X98268025Y-118600025D01*
X98344313Y-118537418D01*
X98431348Y-118490897D01*
X98525787Y-118462249D01*
X98599388Y-118455000D01*
X100248612Y-118455000D01*
X100322213Y-118462249D01*
X100322213Y-118462249D01*
G37*
G36*
X43716000Y-114324000D02*
X43718402Y-114348386D01*
X43725515Y-114371835D01*
X43737066Y-114393446D01*
X43752612Y-114412388D01*
X43771554Y-114427934D01*
X43793165Y-114439485D01*
X43816614Y-114446598D01*
X43841000Y-114449000D01*
X44111000Y-114449000D01*
X44111000Y-117551000D01*
X43841000Y-117551000D01*
X43816614Y-117553402D01*
X43793165Y-117560515D01*
X43771554Y-117572066D01*
X43752612Y-117587612D01*
X43737066Y-117606554D01*
X43725515Y-117628165D01*
X43718402Y-117651614D01*
X43716000Y-117676000D01*
X43716000Y-118946000D01*
X42164000Y-118946000D01*
X42164000Y-117694000D01*
X42484000Y-117694000D01*
X42508386Y-117691598D01*
X42531835Y-117684485D01*
X42553446Y-117672934D01*
X42572388Y-117657388D01*
X42587934Y-117638446D01*
X42599485Y-117616835D01*
X42606598Y-117593386D01*
X42609000Y-117569000D01*
X42609000Y-114431000D01*
X42606598Y-114406614D01*
X42599485Y-114383165D01*
X42587934Y-114361554D01*
X42572388Y-114342612D01*
X42553446Y-114327066D01*
X42531835Y-114315515D01*
X42508386Y-114308402D01*
X42484000Y-114306000D01*
X42164000Y-114306000D01*
X42164000Y-113054000D01*
X43716000Y-113054000D01*
X43716000Y-114324000D01*
X43716000Y-114324000D01*
G37*
G36*
X53756000Y-113759000D02*
X53758402Y-113783386D01*
X53765515Y-113806835D01*
X53777066Y-113828446D01*
X53792612Y-113847388D01*
X53811554Y-113862934D01*
X53833165Y-113874485D01*
X53856614Y-113881598D01*
X53881000Y-113884000D01*
X54986000Y-113884000D01*
X54986000Y-117256000D01*
X53881000Y-117256000D01*
X53856614Y-117258402D01*
X53833165Y-117265515D01*
X53811554Y-117277066D01*
X53792612Y-117292612D01*
X53777066Y-117311554D01*
X53765515Y-117333165D01*
X53758402Y-117356614D01*
X53756000Y-117381000D01*
X53756000Y-118486000D01*
X50384000Y-118486000D01*
X50384000Y-117381000D01*
X50381598Y-117356614D01*
X50374485Y-117333165D01*
X50362934Y-117311554D01*
X50347388Y-117292612D01*
X50328446Y-117277066D01*
X50306835Y-117265515D01*
X50283386Y-117258402D01*
X50259000Y-117256000D01*
X49154000Y-117256000D01*
X49154000Y-113884000D01*
X50259000Y-113884000D01*
X50283386Y-113881598D01*
X50306835Y-113874485D01*
X50328446Y-113862934D01*
X50347388Y-113847388D01*
X50362934Y-113828446D01*
X50374485Y-113806835D01*
X50381598Y-113783386D01*
X50384000Y-113759000D01*
X50384000Y-112654000D01*
X53756000Y-112654000D01*
X53756000Y-113759000D01*
X53756000Y-113759000D01*
G37*
G36*
X115121000Y-118195000D02*
X112019000Y-118195000D01*
X112019000Y-117293000D01*
X115121000Y-117293000D01*
X115121000Y-118195000D01*
X115121000Y-118195000D01*
G37*
G36*
X82322213Y-117192249D02*
X82416652Y-117220897D01*
X82503687Y-117267418D01*
X82579975Y-117330025D01*
X82642582Y-117406313D01*
X82689103Y-117493348D01*
X82717751Y-117587787D01*
X82727424Y-117686000D01*
X82717751Y-117784213D01*
X82689103Y-117878652D01*
X82642582Y-117965687D01*
X82579975Y-118041975D01*
X82503687Y-118104582D01*
X82416652Y-118151103D01*
X82322213Y-118179751D01*
X82248612Y-118187000D01*
X80599388Y-118187000D01*
X80525787Y-118179751D01*
X80431348Y-118151103D01*
X80344313Y-118104582D01*
X80268025Y-118041975D01*
X80205418Y-117965687D01*
X80158897Y-117878652D01*
X80130249Y-117784213D01*
X80120576Y-117686000D01*
X80130249Y-117587787D01*
X80158897Y-117493348D01*
X80205418Y-117406313D01*
X80268025Y-117330025D01*
X80344313Y-117267418D01*
X80431348Y-117220897D01*
X80525787Y-117192249D01*
X80599388Y-117185000D01*
X82248612Y-117185000D01*
X82322213Y-117192249D01*
X82322213Y-117192249D01*
G37*
G36*
X100322213Y-117192249D02*
X100416652Y-117220897D01*
X100503687Y-117267418D01*
X100579975Y-117330025D01*
X100642582Y-117406313D01*
X100689103Y-117493348D01*
X100717751Y-117587787D01*
X100727424Y-117686000D01*
X100717751Y-117784213D01*
X100689103Y-117878652D01*
X100642582Y-117965687D01*
X100579975Y-118041975D01*
X100503687Y-118104582D01*
X100416652Y-118151103D01*
X100322213Y-118179751D01*
X100248612Y-118187000D01*
X98599388Y-118187000D01*
X98525787Y-118179751D01*
X98431348Y-118151103D01*
X98344313Y-118104582D01*
X98268025Y-118041975D01*
X98205418Y-117965687D01*
X98158897Y-117878652D01*
X98130249Y-117784213D01*
X98120576Y-117686000D01*
X98130249Y-117587787D01*
X98158897Y-117493348D01*
X98205418Y-117406313D01*
X98268025Y-117330025D01*
X98344313Y-117267418D01*
X98431348Y-117220897D01*
X98525787Y-117192249D01*
X98599388Y-117185000D01*
X100248612Y-117185000D01*
X100322213Y-117192249D01*
X100322213Y-117192249D01*
G37*
G36*
X41711000Y-118051000D02*
X39709000Y-118051000D01*
X39709000Y-116199000D01*
X41711000Y-116199000D01*
X41711000Y-118051000D01*
X41711000Y-118051000D01*
G37*
G36*
X93175000Y-117007000D02*
X87073000Y-117007000D01*
X87073000Y-110905000D01*
X93175000Y-110905000D01*
X93175000Y-117007000D01*
X93175000Y-117007000D01*
G37*
G36*
X115121000Y-116925000D02*
X112019000Y-116925000D01*
X112019000Y-116023000D01*
X115121000Y-116023000D01*
X115121000Y-116925000D01*
X115121000Y-116925000D01*
G37*
G36*
X100322213Y-115922249D02*
X100416652Y-115950897D01*
X100503687Y-115997418D01*
X100579975Y-116060025D01*
X100642582Y-116136313D01*
X100689103Y-116223348D01*
X100717751Y-116317787D01*
X100727424Y-116416000D01*
X100717751Y-116514213D01*
X100689103Y-116608652D01*
X100642582Y-116695687D01*
X100579975Y-116771975D01*
X100503687Y-116834582D01*
X100416652Y-116881103D01*
X100322213Y-116909751D01*
X100248612Y-116917000D01*
X98599388Y-116917000D01*
X98525787Y-116909751D01*
X98431348Y-116881103D01*
X98344313Y-116834582D01*
X98268025Y-116771975D01*
X98205418Y-116695687D01*
X98158897Y-116608652D01*
X98130249Y-116514213D01*
X98120576Y-116416000D01*
X98130249Y-116317787D01*
X98158897Y-116223348D01*
X98205418Y-116136313D01*
X98268025Y-116060025D01*
X98344313Y-115997418D01*
X98431348Y-115950897D01*
X98525787Y-115922249D01*
X98599388Y-115915000D01*
X100248612Y-115915000D01*
X100322213Y-115922249D01*
X100322213Y-115922249D01*
G37*
G36*
X82322213Y-115922249D02*
X82416652Y-115950897D01*
X82503687Y-115997418D01*
X82579975Y-116060025D01*
X82642582Y-116136313D01*
X82689103Y-116223348D01*
X82717751Y-116317787D01*
X82727424Y-116416000D01*
X82717751Y-116514213D01*
X82689103Y-116608652D01*
X82642582Y-116695687D01*
X82579975Y-116771975D01*
X82503687Y-116834582D01*
X82416652Y-116881103D01*
X82322213Y-116909751D01*
X82248612Y-116917000D01*
X80599388Y-116917000D01*
X80525787Y-116909751D01*
X80431348Y-116881103D01*
X80344313Y-116834582D01*
X80268025Y-116771975D01*
X80205418Y-116695687D01*
X80158897Y-116608652D01*
X80130249Y-116514213D01*
X80120576Y-116416000D01*
X80130249Y-116317787D01*
X80158897Y-116223348D01*
X80205418Y-116136313D01*
X80268025Y-116060025D01*
X80344313Y-115997418D01*
X80431348Y-115950897D01*
X80525787Y-115922249D01*
X80599388Y-115915000D01*
X82248612Y-115915000D01*
X82322213Y-115922249D01*
X82322213Y-115922249D01*
G37*
G36*
X41711000Y-115801000D02*
X39709000Y-115801000D01*
X39709000Y-113949000D01*
X41711000Y-113949000D01*
X41711000Y-115801000D01*
X41711000Y-115801000D01*
G37*
G36*
X115121000Y-115655000D02*
X112019000Y-115655000D01*
X112019000Y-114753000D01*
X115121000Y-114753000D01*
X115121000Y-115655000D01*
X115121000Y-115655000D01*
G37*
G36*
X82322213Y-114652249D02*
X82416652Y-114680897D01*
X82503687Y-114727418D01*
X82579975Y-114790025D01*
X82642582Y-114866313D01*
X82689103Y-114953348D01*
X82717751Y-115047787D01*
X82727424Y-115146000D01*
X82717751Y-115244213D01*
X82689103Y-115338652D01*
X82642582Y-115425687D01*
X82579975Y-115501975D01*
X82503687Y-115564582D01*
X82416652Y-115611103D01*
X82322213Y-115639751D01*
X82248612Y-115647000D01*
X80599388Y-115647000D01*
X80525787Y-115639751D01*
X80431348Y-115611103D01*
X80344313Y-115564582D01*
X80268025Y-115501975D01*
X80205418Y-115425687D01*
X80158897Y-115338652D01*
X80130249Y-115244213D01*
X80120576Y-115146000D01*
X80130249Y-115047787D01*
X80158897Y-114953348D01*
X80205418Y-114866313D01*
X80268025Y-114790025D01*
X80344313Y-114727418D01*
X80431348Y-114680897D01*
X80525787Y-114652249D01*
X80599388Y-114645000D01*
X82248612Y-114645000D01*
X82322213Y-114652249D01*
X82322213Y-114652249D01*
G37*
G36*
X100322213Y-114652249D02*
X100416652Y-114680897D01*
X100503687Y-114727418D01*
X100579975Y-114790025D01*
X100642582Y-114866313D01*
X100689103Y-114953348D01*
X100717751Y-115047787D01*
X100727424Y-115146000D01*
X100717751Y-115244213D01*
X100689103Y-115338652D01*
X100642582Y-115425687D01*
X100579975Y-115501975D01*
X100503687Y-115564582D01*
X100416652Y-115611103D01*
X100322213Y-115639751D01*
X100248612Y-115647000D01*
X98599388Y-115647000D01*
X98525787Y-115639751D01*
X98431348Y-115611103D01*
X98344313Y-115564582D01*
X98268025Y-115501975D01*
X98205418Y-115425687D01*
X98158897Y-115338652D01*
X98130249Y-115244213D01*
X98120576Y-115146000D01*
X98130249Y-115047787D01*
X98158897Y-114953348D01*
X98205418Y-114866313D01*
X98268025Y-114790025D01*
X98344313Y-114727418D01*
X98431348Y-114680897D01*
X98525787Y-114652249D01*
X98599388Y-114645000D01*
X100248612Y-114645000D01*
X100322213Y-114652249D01*
X100322213Y-114652249D01*
G37*
G36*
X68780677Y-114061465D02*
X68818364Y-114072898D01*
X68853103Y-114091466D01*
X68883548Y-114116452D01*
X68908534Y-114146897D01*
X68927102Y-114181636D01*
X68938535Y-114219323D01*
X68943000Y-114264661D01*
X68943000Y-115351339D01*
X68938535Y-115396677D01*
X68927102Y-115434364D01*
X68908534Y-115469103D01*
X68883548Y-115499548D01*
X68853103Y-115524534D01*
X68818364Y-115543102D01*
X68780677Y-115554535D01*
X68735339Y-115559000D01*
X67898661Y-115559000D01*
X67853323Y-115554535D01*
X67815636Y-115543102D01*
X67780897Y-115524534D01*
X67750452Y-115499548D01*
X67725466Y-115469103D01*
X67706898Y-115434364D01*
X67695465Y-115396677D01*
X67691000Y-115351339D01*
X67691000Y-114264661D01*
X67695465Y-114219323D01*
X67706898Y-114181636D01*
X67725466Y-114146897D01*
X67750452Y-114116452D01*
X67780897Y-114091466D01*
X67815636Y-114072898D01*
X67853323Y-114061465D01*
X67898661Y-114057000D01*
X68735339Y-114057000D01*
X68780677Y-114061465D01*
X68780677Y-114061465D01*
G37*
G36*
X70830677Y-114061465D02*
X70868364Y-114072898D01*
X70903103Y-114091466D01*
X70933548Y-114116452D01*
X70958534Y-114146897D01*
X70977102Y-114181636D01*
X70988535Y-114219323D01*
X70993000Y-114264661D01*
X70993000Y-115351339D01*
X70988535Y-115396677D01*
X70977102Y-115434364D01*
X70958534Y-115469103D01*
X70933548Y-115499548D01*
X70903103Y-115524534D01*
X70868364Y-115543102D01*
X70830677Y-115554535D01*
X70785339Y-115559000D01*
X69948661Y-115559000D01*
X69903323Y-115554535D01*
X69865636Y-115543102D01*
X69830897Y-115524534D01*
X69800452Y-115499548D01*
X69775466Y-115469103D01*
X69756898Y-115434364D01*
X69745465Y-115396677D01*
X69741000Y-115351339D01*
X69741000Y-114264661D01*
X69745465Y-114219323D01*
X69756898Y-114181636D01*
X69775466Y-114146897D01*
X69800452Y-114116452D01*
X69830897Y-114091466D01*
X69865636Y-114072898D01*
X69903323Y-114061465D01*
X69948661Y-114057000D01*
X70785339Y-114057000D01*
X70830677Y-114061465D01*
X70830677Y-114061465D01*
G37*
G36*
X62207000Y-115447000D02*
X61205000Y-115447000D01*
X61205000Y-114545000D01*
X62207000Y-114545000D01*
X62207000Y-115447000D01*
X62207000Y-115447000D01*
G37*
G36*
X60207000Y-114497000D02*
X59205000Y-114497000D01*
X59205000Y-113595000D01*
X60207000Y-113595000D01*
X60207000Y-114497000D01*
X60207000Y-114497000D01*
G37*
G36*
X115121000Y-114385000D02*
X112019000Y-114385000D01*
X112019000Y-113483000D01*
X115121000Y-113483000D01*
X115121000Y-114385000D01*
X115121000Y-114385000D01*
G37*
G36*
X82322213Y-113382249D02*
X82416652Y-113410897D01*
X82503687Y-113457418D01*
X82579975Y-113520025D01*
X82642582Y-113596313D01*
X82689103Y-113683348D01*
X82717751Y-113777787D01*
X82727424Y-113876000D01*
X82717751Y-113974213D01*
X82689103Y-114068652D01*
X82642582Y-114155687D01*
X82579975Y-114231975D01*
X82503687Y-114294582D01*
X82416652Y-114341103D01*
X82322213Y-114369751D01*
X82248612Y-114377000D01*
X80599388Y-114377000D01*
X80525787Y-114369751D01*
X80431348Y-114341103D01*
X80344313Y-114294582D01*
X80268025Y-114231975D01*
X80205418Y-114155687D01*
X80158897Y-114068652D01*
X80130249Y-113974213D01*
X80120576Y-113876000D01*
X80130249Y-113777787D01*
X80158897Y-113683348D01*
X80205418Y-113596313D01*
X80268025Y-113520025D01*
X80344313Y-113457418D01*
X80431348Y-113410897D01*
X80525787Y-113382249D01*
X80599388Y-113375000D01*
X82248612Y-113375000D01*
X82322213Y-113382249D01*
X82322213Y-113382249D01*
G37*
G36*
X100322213Y-113382249D02*
X100416652Y-113410897D01*
X100503687Y-113457418D01*
X100579975Y-113520025D01*
X100642582Y-113596313D01*
X100689103Y-113683348D01*
X100717751Y-113777787D01*
X100727424Y-113876000D01*
X100717751Y-113974213D01*
X100689103Y-114068652D01*
X100642582Y-114155687D01*
X100579975Y-114231975D01*
X100503687Y-114294582D01*
X100416652Y-114341103D01*
X100322213Y-114369751D01*
X100248612Y-114377000D01*
X98599388Y-114377000D01*
X98525787Y-114369751D01*
X98431348Y-114341103D01*
X98344313Y-114294582D01*
X98268025Y-114231975D01*
X98205418Y-114155687D01*
X98158897Y-114068652D01*
X98130249Y-113974213D01*
X98120576Y-113876000D01*
X98130249Y-113777787D01*
X98158897Y-113683348D01*
X98205418Y-113596313D01*
X98268025Y-113520025D01*
X98344313Y-113457418D01*
X98431348Y-113410897D01*
X98525787Y-113382249D01*
X98599388Y-113375000D01*
X100248612Y-113375000D01*
X100322213Y-113382249D01*
X100322213Y-113382249D01*
G37*
G36*
X62207000Y-113547000D02*
X61205000Y-113547000D01*
X61205000Y-112645000D01*
X62207000Y-112645000D01*
X62207000Y-113547000D01*
X62207000Y-113547000D01*
G37*
G36*
X115121000Y-113115000D02*
X112019000Y-113115000D01*
X112019000Y-112213000D01*
X115121000Y-112213000D01*
X115121000Y-113115000D01*
X115121000Y-113115000D01*
G37*
G36*
X82322213Y-112112249D02*
X82416652Y-112140897D01*
X82503687Y-112187418D01*
X82579975Y-112250025D01*
X82642582Y-112326313D01*
X82689103Y-112413348D01*
X82717751Y-112507787D01*
X82727424Y-112606000D01*
X82717751Y-112704213D01*
X82689103Y-112798652D01*
X82642582Y-112885687D01*
X82579975Y-112961975D01*
X82503687Y-113024582D01*
X82416652Y-113071103D01*
X82322213Y-113099751D01*
X82248612Y-113107000D01*
X80599388Y-113107000D01*
X80525787Y-113099751D01*
X80431348Y-113071103D01*
X80344313Y-113024582D01*
X80268025Y-112961975D01*
X80205418Y-112885687D01*
X80158897Y-112798652D01*
X80130249Y-112704213D01*
X80120576Y-112606000D01*
X80130249Y-112507787D01*
X80158897Y-112413348D01*
X80205418Y-112326313D01*
X80268025Y-112250025D01*
X80344313Y-112187418D01*
X80431348Y-112140897D01*
X80525787Y-112112249D01*
X80599388Y-112105000D01*
X82248612Y-112105000D01*
X82322213Y-112112249D01*
X82322213Y-112112249D01*
G37*
G36*
X100322213Y-112112249D02*
X100416652Y-112140897D01*
X100503687Y-112187418D01*
X100579975Y-112250025D01*
X100642582Y-112326313D01*
X100689103Y-112413348D01*
X100717751Y-112507787D01*
X100727424Y-112606000D01*
X100717751Y-112704213D01*
X100689103Y-112798652D01*
X100642582Y-112885687D01*
X100579975Y-112961975D01*
X100503687Y-113024582D01*
X100416652Y-113071103D01*
X100322213Y-113099751D01*
X100248612Y-113107000D01*
X98599388Y-113107000D01*
X98525787Y-113099751D01*
X98431348Y-113071103D01*
X98344313Y-113024582D01*
X98268025Y-112961975D01*
X98205418Y-112885687D01*
X98158897Y-112798652D01*
X98130249Y-112704213D01*
X98120576Y-112606000D01*
X98130249Y-112507787D01*
X98158897Y-112413348D01*
X98205418Y-112326313D01*
X98268025Y-112250025D01*
X98344313Y-112187418D01*
X98431348Y-112140897D01*
X98525787Y-112112249D01*
X98599388Y-112105000D01*
X100248612Y-112105000D01*
X100322213Y-112112249D01*
X100322213Y-112112249D01*
G37*
G36*
X41247916Y-111857334D02*
X41356492Y-111890271D01*
X41456557Y-111943756D01*
X41544264Y-112015736D01*
X41616244Y-112103443D01*
X41669729Y-112203508D01*
X41702666Y-112312084D01*
X41713787Y-112425000D01*
X41702666Y-112537916D01*
X41669729Y-112646492D01*
X41616244Y-112746557D01*
X41544264Y-112834264D01*
X41456557Y-112906244D01*
X41356492Y-112959729D01*
X41247916Y-112992666D01*
X41163298Y-113001000D01*
X40256702Y-113001000D01*
X40172084Y-112992666D01*
X40063508Y-112959729D01*
X39963443Y-112906244D01*
X39875736Y-112834264D01*
X39803756Y-112746557D01*
X39750271Y-112646492D01*
X39717334Y-112537916D01*
X39706213Y-112425000D01*
X39717334Y-112312084D01*
X39750271Y-112203508D01*
X39803756Y-112103443D01*
X39875736Y-112015736D01*
X39963443Y-111943756D01*
X40063508Y-111890271D01*
X40172084Y-111857334D01*
X40256702Y-111849000D01*
X41163298Y-111849000D01*
X41247916Y-111857334D01*
X41247916Y-111857334D01*
G37*
G36*
X115121000Y-111845000D02*
X112019000Y-111845000D01*
X112019000Y-110943000D01*
X115121000Y-110943000D01*
X115121000Y-111845000D01*
X115121000Y-111845000D01*
G37*
G36*
X100322213Y-110842249D02*
X100416652Y-110870897D01*
X100503687Y-110917418D01*
X100579975Y-110980025D01*
X100642582Y-111056313D01*
X100689103Y-111143348D01*
X100717751Y-111237787D01*
X100727424Y-111336000D01*
X100717751Y-111434213D01*
X100689103Y-111528652D01*
X100642582Y-111615687D01*
X100579975Y-111691975D01*
X100503687Y-111754582D01*
X100416652Y-111801103D01*
X100322213Y-111829751D01*
X100248612Y-111837000D01*
X98599388Y-111837000D01*
X98525787Y-111829751D01*
X98431348Y-111801103D01*
X98344313Y-111754582D01*
X98268025Y-111691975D01*
X98205418Y-111615687D01*
X98158897Y-111528652D01*
X98130249Y-111434213D01*
X98120576Y-111336000D01*
X98130249Y-111237787D01*
X98158897Y-111143348D01*
X98205418Y-111056313D01*
X98268025Y-110980025D01*
X98344313Y-110917418D01*
X98431348Y-110870897D01*
X98525787Y-110842249D01*
X98599388Y-110835000D01*
X100248612Y-110835000D01*
X100322213Y-110842249D01*
X100322213Y-110842249D01*
G37*
G36*
X82322213Y-110842249D02*
X82416652Y-110870897D01*
X82503687Y-110917418D01*
X82579975Y-110980025D01*
X82642582Y-111056313D01*
X82689103Y-111143348D01*
X82717751Y-111237787D01*
X82727424Y-111336000D01*
X82717751Y-111434213D01*
X82689103Y-111528652D01*
X82642582Y-111615687D01*
X82579975Y-111691975D01*
X82503687Y-111754582D01*
X82416652Y-111801103D01*
X82322213Y-111829751D01*
X82248612Y-111837000D01*
X80599388Y-111837000D01*
X80525787Y-111829751D01*
X80431348Y-111801103D01*
X80344313Y-111754582D01*
X80268025Y-111691975D01*
X80205418Y-111615687D01*
X80158897Y-111528652D01*
X80130249Y-111434213D01*
X80120576Y-111336000D01*
X80130249Y-111237787D01*
X80158897Y-111143348D01*
X80205418Y-111056313D01*
X80268025Y-110980025D01*
X80344313Y-110917418D01*
X80431348Y-110870897D01*
X80525787Y-110842249D01*
X80599388Y-110835000D01*
X82248612Y-110835000D01*
X82322213Y-110842249D01*
X82322213Y-110842249D01*
G37*
G36*
X68798677Y-110251465D02*
X68836364Y-110262898D01*
X68871103Y-110281466D01*
X68901548Y-110306452D01*
X68926534Y-110336897D01*
X68945102Y-110371636D01*
X68956535Y-110409323D01*
X68961000Y-110454661D01*
X68961000Y-111541339D01*
X68956535Y-111586677D01*
X68945102Y-111624364D01*
X68926534Y-111659103D01*
X68901548Y-111689548D01*
X68871103Y-111714534D01*
X68836364Y-111733102D01*
X68798677Y-111744535D01*
X68753339Y-111749000D01*
X67916661Y-111749000D01*
X67871323Y-111744535D01*
X67833636Y-111733102D01*
X67798897Y-111714534D01*
X67768452Y-111689548D01*
X67743466Y-111659103D01*
X67724898Y-111624364D01*
X67713465Y-111586677D01*
X67709000Y-111541339D01*
X67709000Y-110454661D01*
X67713465Y-110409323D01*
X67724898Y-110371636D01*
X67743466Y-110336897D01*
X67768452Y-110306452D01*
X67798897Y-110281466D01*
X67833636Y-110262898D01*
X67871323Y-110251465D01*
X67916661Y-110247000D01*
X68753339Y-110247000D01*
X68798677Y-110251465D01*
X68798677Y-110251465D01*
G37*
G36*
X66748677Y-110251465D02*
X66786364Y-110262898D01*
X66821103Y-110281466D01*
X66851548Y-110306452D01*
X66876534Y-110336897D01*
X66895102Y-110371636D01*
X66906535Y-110409323D01*
X66911000Y-110454661D01*
X66911000Y-111541339D01*
X66906535Y-111586677D01*
X66895102Y-111624364D01*
X66876534Y-111659103D01*
X66851548Y-111689548D01*
X66821103Y-111714534D01*
X66786364Y-111733102D01*
X66748677Y-111744535D01*
X66703339Y-111749000D01*
X65866661Y-111749000D01*
X65821323Y-111744535D01*
X65783636Y-111733102D01*
X65748897Y-111714534D01*
X65718452Y-111689548D01*
X65693466Y-111659103D01*
X65674898Y-111624364D01*
X65663465Y-111586677D01*
X65659000Y-111541339D01*
X65659000Y-110454661D01*
X65663465Y-110409323D01*
X65674898Y-110371636D01*
X65693466Y-110336897D01*
X65718452Y-110306452D01*
X65748897Y-110281466D01*
X65783636Y-110262898D01*
X65821323Y-110251465D01*
X65866661Y-110247000D01*
X66703339Y-110247000D01*
X66748677Y-110251465D01*
X66748677Y-110251465D01*
G37*
G36*
X138591000Y-111051000D02*
X133409000Y-111051000D01*
X133409000Y-109449000D01*
X138591000Y-109449000D01*
X138591000Y-111051000D01*
X138591000Y-111051000D01*
G37*
G36*
X115121000Y-110575000D02*
X112019000Y-110575000D01*
X112019000Y-109673000D01*
X115121000Y-109673000D01*
X115121000Y-110575000D01*
X115121000Y-110575000D01*
G37*
G36*
X82322213Y-109572249D02*
X82416652Y-109600897D01*
X82503687Y-109647418D01*
X82579975Y-109710025D01*
X82642582Y-109786313D01*
X82689103Y-109873348D01*
X82717751Y-109967787D01*
X82727424Y-110066000D01*
X82717751Y-110164213D01*
X82689103Y-110258652D01*
X82642582Y-110345687D01*
X82579975Y-110421975D01*
X82503687Y-110484582D01*
X82416652Y-110531103D01*
X82322213Y-110559751D01*
X82248612Y-110567000D01*
X80599388Y-110567000D01*
X80525787Y-110559751D01*
X80431348Y-110531103D01*
X80344313Y-110484582D01*
X80268025Y-110421975D01*
X80205418Y-110345687D01*
X80158897Y-110258652D01*
X80130249Y-110164213D01*
X80120576Y-110066000D01*
X80130249Y-109967787D01*
X80158897Y-109873348D01*
X80205418Y-109786313D01*
X80268025Y-109710025D01*
X80344313Y-109647418D01*
X80431348Y-109600897D01*
X80525787Y-109572249D01*
X80599388Y-109565000D01*
X82248612Y-109565000D01*
X82322213Y-109572249D01*
X82322213Y-109572249D01*
G37*
G36*
X100322213Y-109572249D02*
X100416652Y-109600897D01*
X100503687Y-109647418D01*
X100579975Y-109710025D01*
X100642582Y-109786313D01*
X100689103Y-109873348D01*
X100717751Y-109967787D01*
X100727424Y-110066000D01*
X100717751Y-110164213D01*
X100689103Y-110258652D01*
X100642582Y-110345687D01*
X100579975Y-110421975D01*
X100503687Y-110484582D01*
X100416652Y-110531103D01*
X100322213Y-110559751D01*
X100248612Y-110567000D01*
X98599388Y-110567000D01*
X98525787Y-110559751D01*
X98431348Y-110531103D01*
X98344313Y-110484582D01*
X98268025Y-110421975D01*
X98205418Y-110345687D01*
X98158897Y-110258652D01*
X98130249Y-110164213D01*
X98120576Y-110066000D01*
X98130249Y-109967787D01*
X98158897Y-109873348D01*
X98205418Y-109786313D01*
X98268025Y-109710025D01*
X98344313Y-109647418D01*
X98431348Y-109600897D01*
X98525787Y-109572249D01*
X98599388Y-109565000D01*
X100248612Y-109565000D01*
X100322213Y-109572249D01*
X100322213Y-109572249D01*
G37*
G36*
X131821000Y-109305000D02*
X128719000Y-109305000D01*
X128719000Y-108403000D01*
X131821000Y-108403000D01*
X131821000Y-109305000D01*
X131821000Y-109305000D01*
G37*
G36*
X115121000Y-109305000D02*
X112019000Y-109305000D01*
X112019000Y-108403000D01*
X115121000Y-108403000D01*
X115121000Y-109305000D01*
X115121000Y-109305000D01*
G37*
G36*
X100322213Y-108302249D02*
X100416652Y-108330897D01*
X100503687Y-108377418D01*
X100579975Y-108440025D01*
X100642582Y-108516313D01*
X100689103Y-108603348D01*
X100717751Y-108697787D01*
X100727424Y-108796000D01*
X100717751Y-108894213D01*
X100689103Y-108988652D01*
X100642582Y-109075687D01*
X100579975Y-109151975D01*
X100503687Y-109214582D01*
X100416652Y-109261103D01*
X100322213Y-109289751D01*
X100248612Y-109297000D01*
X98599388Y-109297000D01*
X98525787Y-109289751D01*
X98431348Y-109261103D01*
X98344313Y-109214582D01*
X98268025Y-109151975D01*
X98205418Y-109075687D01*
X98158897Y-108988652D01*
X98130249Y-108894213D01*
X98120576Y-108796000D01*
X98130249Y-108697787D01*
X98158897Y-108603348D01*
X98205418Y-108516313D01*
X98268025Y-108440025D01*
X98344313Y-108377418D01*
X98431348Y-108330897D01*
X98525787Y-108302249D01*
X98599388Y-108295000D01*
X100248612Y-108295000D01*
X100322213Y-108302249D01*
X100322213Y-108302249D01*
G37*
G36*
X82322213Y-108302249D02*
X82416652Y-108330897D01*
X82503687Y-108377418D01*
X82579975Y-108440025D01*
X82642582Y-108516313D01*
X82689103Y-108603348D01*
X82717751Y-108697787D01*
X82727424Y-108796000D01*
X82717751Y-108894213D01*
X82689103Y-108988652D01*
X82642582Y-109075687D01*
X82579975Y-109151975D01*
X82503687Y-109214582D01*
X82416652Y-109261103D01*
X82322213Y-109289751D01*
X82248612Y-109297000D01*
X80599388Y-109297000D01*
X80525787Y-109289751D01*
X80431348Y-109261103D01*
X80344313Y-109214582D01*
X80268025Y-109151975D01*
X80205418Y-109075687D01*
X80158897Y-108988652D01*
X80130249Y-108894213D01*
X80120576Y-108796000D01*
X80130249Y-108697787D01*
X80158897Y-108603348D01*
X80205418Y-108516313D01*
X80268025Y-108440025D01*
X80344313Y-108377418D01*
X80431348Y-108330897D01*
X80525787Y-108302249D01*
X80599388Y-108295000D01*
X82248612Y-108295000D01*
X82322213Y-108302249D01*
X82322213Y-108302249D01*
G37*
G36*
X53794677Y-106695465D02*
X53832364Y-106706898D01*
X53867103Y-106725466D01*
X53897548Y-106750452D01*
X53922534Y-106780897D01*
X53941102Y-106815636D01*
X53952535Y-106853323D01*
X53957000Y-106898661D01*
X53957000Y-107985339D01*
X53952535Y-108030677D01*
X53941102Y-108068364D01*
X53922534Y-108103103D01*
X53897548Y-108133548D01*
X53867103Y-108158534D01*
X53832364Y-108177102D01*
X53794677Y-108188535D01*
X53749339Y-108193000D01*
X52912661Y-108193000D01*
X52867323Y-108188535D01*
X52829636Y-108177102D01*
X52794897Y-108158534D01*
X52764452Y-108133548D01*
X52739466Y-108103103D01*
X52720898Y-108068364D01*
X52709465Y-108030677D01*
X52705000Y-107985339D01*
X52705000Y-106898661D01*
X52709465Y-106853323D01*
X52720898Y-106815636D01*
X52739466Y-106780897D01*
X52764452Y-106750452D01*
X52794897Y-106725466D01*
X52829636Y-106706898D01*
X52867323Y-106695465D01*
X52912661Y-106691000D01*
X53749339Y-106691000D01*
X53794677Y-106695465D01*
X53794677Y-106695465D01*
G37*
G36*
X55844677Y-106695465D02*
X55882364Y-106706898D01*
X55917103Y-106725466D01*
X55947548Y-106750452D01*
X55972534Y-106780897D01*
X55991102Y-106815636D01*
X56002535Y-106853323D01*
X56007000Y-106898661D01*
X56007000Y-107985339D01*
X56002535Y-108030677D01*
X55991102Y-108068364D01*
X55972534Y-108103103D01*
X55947548Y-108133548D01*
X55917103Y-108158534D01*
X55882364Y-108177102D01*
X55844677Y-108188535D01*
X55799339Y-108193000D01*
X54962661Y-108193000D01*
X54917323Y-108188535D01*
X54879636Y-108177102D01*
X54844897Y-108158534D01*
X54814452Y-108133548D01*
X54789466Y-108103103D01*
X54770898Y-108068364D01*
X54759465Y-108030677D01*
X54755000Y-107985339D01*
X54755000Y-106898661D01*
X54759465Y-106853323D01*
X54770898Y-106815636D01*
X54789466Y-106780897D01*
X54814452Y-106750452D01*
X54844897Y-106725466D01*
X54879636Y-106706898D01*
X54917323Y-106695465D01*
X54962661Y-106691000D01*
X55799339Y-106691000D01*
X55844677Y-106695465D01*
X55844677Y-106695465D01*
G37*
G36*
X72978677Y-106820465D02*
X73016364Y-106831898D01*
X73051103Y-106850466D01*
X73081548Y-106875452D01*
X73106534Y-106905897D01*
X73125102Y-106940636D01*
X73136535Y-106978323D01*
X73141000Y-107023661D01*
X73141000Y-107860339D01*
X73136535Y-107905677D01*
X73125102Y-107943364D01*
X73106534Y-107978103D01*
X73081548Y-108008548D01*
X73051103Y-108033534D01*
X73016364Y-108052102D01*
X72978677Y-108063535D01*
X72933339Y-108068000D01*
X71846661Y-108068000D01*
X71801323Y-108063535D01*
X71763636Y-108052102D01*
X71728897Y-108033534D01*
X71698452Y-108008548D01*
X71673466Y-107978103D01*
X71654898Y-107943364D01*
X71643465Y-107905677D01*
X71639000Y-107860339D01*
X71639000Y-107023661D01*
X71643465Y-106978323D01*
X71654898Y-106940636D01*
X71673466Y-106905897D01*
X71698452Y-106875452D01*
X71728897Y-106850466D01*
X71763636Y-106831898D01*
X71801323Y-106820465D01*
X71846661Y-106816000D01*
X72933339Y-106816000D01*
X72978677Y-106820465D01*
X72978677Y-106820465D01*
G37*
G36*
X76788677Y-106820465D02*
X76826364Y-106831898D01*
X76861103Y-106850466D01*
X76891548Y-106875452D01*
X76916534Y-106905897D01*
X76935102Y-106940636D01*
X76946535Y-106978323D01*
X76951000Y-107023661D01*
X76951000Y-107860339D01*
X76946535Y-107905677D01*
X76935102Y-107943364D01*
X76916534Y-107978103D01*
X76891548Y-108008548D01*
X76861103Y-108033534D01*
X76826364Y-108052102D01*
X76788677Y-108063535D01*
X76743339Y-108068000D01*
X75656661Y-108068000D01*
X75611323Y-108063535D01*
X75573636Y-108052102D01*
X75538897Y-108033534D01*
X75508452Y-108008548D01*
X75483466Y-107978103D01*
X75464898Y-107943364D01*
X75453465Y-107905677D01*
X75449000Y-107860339D01*
X75449000Y-107023661D01*
X75453465Y-106978323D01*
X75464898Y-106940636D01*
X75483466Y-106905897D01*
X75508452Y-106875452D01*
X75538897Y-106850466D01*
X75573636Y-106831898D01*
X75611323Y-106820465D01*
X75656661Y-106816000D01*
X76743339Y-106816000D01*
X76788677Y-106820465D01*
X76788677Y-106820465D01*
G37*
G36*
X115121000Y-108035000D02*
X112019000Y-108035000D01*
X112019000Y-107133000D01*
X115121000Y-107133000D01*
X115121000Y-108035000D01*
X115121000Y-108035000D01*
G37*
G36*
X131821000Y-108035000D02*
X128719000Y-108035000D01*
X128719000Y-107133000D01*
X131821000Y-107133000D01*
X131821000Y-108035000D01*
X131821000Y-108035000D01*
G37*
G36*
X100322213Y-107032249D02*
X100416652Y-107060897D01*
X100503687Y-107107418D01*
X100579975Y-107170025D01*
X100642582Y-107246313D01*
X100689103Y-107333348D01*
X100717751Y-107427787D01*
X100727424Y-107526000D01*
X100717751Y-107624213D01*
X100689103Y-107718652D01*
X100642582Y-107805687D01*
X100579975Y-107881975D01*
X100503687Y-107944582D01*
X100416652Y-107991103D01*
X100322213Y-108019751D01*
X100248612Y-108027000D01*
X98599388Y-108027000D01*
X98525787Y-108019751D01*
X98431348Y-107991103D01*
X98344313Y-107944582D01*
X98268025Y-107881975D01*
X98205418Y-107805687D01*
X98158897Y-107718652D01*
X98130249Y-107624213D01*
X98120576Y-107526000D01*
X98130249Y-107427787D01*
X98158897Y-107333348D01*
X98205418Y-107246313D01*
X98268025Y-107170025D01*
X98344313Y-107107418D01*
X98431348Y-107060897D01*
X98525787Y-107032249D01*
X98599388Y-107025000D01*
X100248612Y-107025000D01*
X100322213Y-107032249D01*
X100322213Y-107032249D01*
G37*
G36*
X82322213Y-107032249D02*
X82416652Y-107060897D01*
X82503687Y-107107418D01*
X82579975Y-107170025D01*
X82642582Y-107246313D01*
X82689103Y-107333348D01*
X82717751Y-107427787D01*
X82727424Y-107526000D01*
X82717751Y-107624213D01*
X82689103Y-107718652D01*
X82642582Y-107805687D01*
X82579975Y-107881975D01*
X82503687Y-107944582D01*
X82416652Y-107991103D01*
X82322213Y-108019751D01*
X82248612Y-108027000D01*
X80599388Y-108027000D01*
X80525787Y-108019751D01*
X80431348Y-107991103D01*
X80344313Y-107944582D01*
X80268025Y-107881975D01*
X80205418Y-107805687D01*
X80158897Y-107718652D01*
X80130249Y-107624213D01*
X80120576Y-107526000D01*
X80130249Y-107427787D01*
X80158897Y-107333348D01*
X80205418Y-107246313D01*
X80268025Y-107170025D01*
X80344313Y-107107418D01*
X80431348Y-107060897D01*
X80525787Y-107032249D01*
X80599388Y-107025000D01*
X82248612Y-107025000D01*
X82322213Y-107032249D01*
X82322213Y-107032249D01*
G37*
G36*
X59953000Y-106811000D02*
X58951000Y-106811000D01*
X58951000Y-105909000D01*
X59953000Y-105909000D01*
X59953000Y-106811000D01*
X59953000Y-106811000D01*
G37*
G36*
X138591000Y-106801000D02*
X133409000Y-106801000D01*
X133409000Y-105199000D01*
X138591000Y-105199000D01*
X138591000Y-106801000D01*
X138591000Y-106801000D01*
G37*
G36*
X82322213Y-105762249D02*
X82416652Y-105790897D01*
X82503687Y-105837418D01*
X82579975Y-105900025D01*
X82642582Y-105976313D01*
X82689103Y-106063348D01*
X82717751Y-106157787D01*
X82727424Y-106256000D01*
X82717751Y-106354213D01*
X82689103Y-106448652D01*
X82642582Y-106535687D01*
X82579975Y-106611975D01*
X82503687Y-106674582D01*
X82416652Y-106721103D01*
X82322213Y-106749751D01*
X82248612Y-106757000D01*
X80599388Y-106757000D01*
X80525787Y-106749751D01*
X80431348Y-106721103D01*
X80344313Y-106674582D01*
X80268025Y-106611975D01*
X80205418Y-106535687D01*
X80158897Y-106448652D01*
X80130249Y-106354213D01*
X80120576Y-106256000D01*
X80130249Y-106157787D01*
X80158897Y-106063348D01*
X80205418Y-105976313D01*
X80268025Y-105900025D01*
X80344313Y-105837418D01*
X80431348Y-105790897D01*
X80525787Y-105762249D01*
X80599388Y-105755000D01*
X82248612Y-105755000D01*
X82322213Y-105762249D01*
X82322213Y-105762249D01*
G37*
G36*
X100322213Y-105762249D02*
X100416652Y-105790897D01*
X100503687Y-105837418D01*
X100579975Y-105900025D01*
X100642582Y-105976313D01*
X100689103Y-106063348D01*
X100717751Y-106157787D01*
X100727424Y-106256000D01*
X100717751Y-106354213D01*
X100689103Y-106448652D01*
X100642582Y-106535687D01*
X100579975Y-106611975D01*
X100503687Y-106674582D01*
X100416652Y-106721103D01*
X100322213Y-106749751D01*
X100248612Y-106757000D01*
X98599388Y-106757000D01*
X98525787Y-106749751D01*
X98431348Y-106721103D01*
X98344313Y-106674582D01*
X98268025Y-106611975D01*
X98205418Y-106535687D01*
X98158897Y-106448652D01*
X98130249Y-106354213D01*
X98120576Y-106256000D01*
X98130249Y-106157787D01*
X98158897Y-106063348D01*
X98205418Y-105976313D01*
X98268025Y-105900025D01*
X98344313Y-105837418D01*
X98431348Y-105790897D01*
X98525787Y-105762249D01*
X98599388Y-105755000D01*
X100248612Y-105755000D01*
X100322213Y-105762249D01*
X100322213Y-105762249D01*
G37*
G36*
X67256677Y-104663465D02*
X67294364Y-104674898D01*
X67329103Y-104693466D01*
X67359548Y-104718452D01*
X67384534Y-104748897D01*
X67403102Y-104783636D01*
X67414535Y-104821323D01*
X67419000Y-104866661D01*
X67419000Y-105953339D01*
X67414535Y-105998677D01*
X67403102Y-106036364D01*
X67384534Y-106071103D01*
X67359548Y-106101548D01*
X67329103Y-106126534D01*
X67294364Y-106145102D01*
X67256677Y-106156535D01*
X67211339Y-106161000D01*
X66374661Y-106161000D01*
X66329323Y-106156535D01*
X66291636Y-106145102D01*
X66256897Y-106126534D01*
X66226452Y-106101548D01*
X66201466Y-106071103D01*
X66182898Y-106036364D01*
X66171465Y-105998677D01*
X66167000Y-105953339D01*
X66167000Y-104866661D01*
X66171465Y-104821323D01*
X66182898Y-104783636D01*
X66201466Y-104748897D01*
X66226452Y-104718452D01*
X66256897Y-104693466D01*
X66291636Y-104674898D01*
X66329323Y-104663465D01*
X66374661Y-104659000D01*
X67211339Y-104659000D01*
X67256677Y-104663465D01*
X67256677Y-104663465D01*
G37*
G36*
X69306677Y-104663465D02*
X69344364Y-104674898D01*
X69379103Y-104693466D01*
X69409548Y-104718452D01*
X69434534Y-104748897D01*
X69453102Y-104783636D01*
X69464535Y-104821323D01*
X69469000Y-104866661D01*
X69469000Y-105953339D01*
X69464535Y-105998677D01*
X69453102Y-106036364D01*
X69434534Y-106071103D01*
X69409548Y-106101548D01*
X69379103Y-106126534D01*
X69344364Y-106145102D01*
X69306677Y-106156535D01*
X69261339Y-106161000D01*
X68424661Y-106161000D01*
X68379323Y-106156535D01*
X68341636Y-106145102D01*
X68306897Y-106126534D01*
X68276452Y-106101548D01*
X68251466Y-106071103D01*
X68232898Y-106036364D01*
X68221465Y-105998677D01*
X68217000Y-105953339D01*
X68217000Y-104866661D01*
X68221465Y-104821323D01*
X68232898Y-104783636D01*
X68251466Y-104748897D01*
X68276452Y-104718452D01*
X68306897Y-104693466D01*
X68341636Y-104674898D01*
X68379323Y-104663465D01*
X68424661Y-104659000D01*
X69261339Y-104659000D01*
X69306677Y-104663465D01*
X69306677Y-104663465D01*
G37*
G36*
X76788677Y-104770465D02*
X76826364Y-104781898D01*
X76861103Y-104800466D01*
X76891548Y-104825452D01*
X76916534Y-104855897D01*
X76935102Y-104890636D01*
X76946535Y-104928323D01*
X76951000Y-104973661D01*
X76951000Y-105810339D01*
X76946535Y-105855677D01*
X76935102Y-105893364D01*
X76916534Y-105928103D01*
X76891548Y-105958548D01*
X76861103Y-105983534D01*
X76826364Y-106002102D01*
X76788677Y-106013535D01*
X76743339Y-106018000D01*
X75656661Y-106018000D01*
X75611323Y-106013535D01*
X75573636Y-106002102D01*
X75538897Y-105983534D01*
X75508452Y-105958548D01*
X75483466Y-105928103D01*
X75464898Y-105893364D01*
X75453465Y-105855677D01*
X75449000Y-105810339D01*
X75449000Y-104973661D01*
X75453465Y-104928323D01*
X75464898Y-104890636D01*
X75483466Y-104855897D01*
X75508452Y-104825452D01*
X75538897Y-104800466D01*
X75573636Y-104781898D01*
X75611323Y-104770465D01*
X75656661Y-104766000D01*
X76743339Y-104766000D01*
X76788677Y-104770465D01*
X76788677Y-104770465D01*
G37*
G36*
X72978677Y-104770465D02*
X73016364Y-104781898D01*
X73051103Y-104800466D01*
X73081548Y-104825452D01*
X73106534Y-104855897D01*
X73125102Y-104890636D01*
X73136535Y-104928323D01*
X73141000Y-104973661D01*
X73141000Y-105810339D01*
X73136535Y-105855677D01*
X73125102Y-105893364D01*
X73106534Y-105928103D01*
X73081548Y-105958548D01*
X73051103Y-105983534D01*
X73016364Y-106002102D01*
X72978677Y-106013535D01*
X72933339Y-106018000D01*
X71846661Y-106018000D01*
X71801323Y-106013535D01*
X71763636Y-106002102D01*
X71728897Y-105983534D01*
X71698452Y-105958548D01*
X71673466Y-105928103D01*
X71654898Y-105893364D01*
X71643465Y-105855677D01*
X71639000Y-105810339D01*
X71639000Y-104973661D01*
X71643465Y-104928323D01*
X71654898Y-104890636D01*
X71673466Y-104855897D01*
X71698452Y-104825452D01*
X71728897Y-104800466D01*
X71763636Y-104781898D01*
X71801323Y-104770465D01*
X71846661Y-104766000D01*
X72933339Y-104766000D01*
X72978677Y-104770465D01*
X72978677Y-104770465D01*
G37*
G36*
X61953000Y-105861000D02*
X60951000Y-105861000D01*
X60951000Y-104959000D01*
X61953000Y-104959000D01*
X61953000Y-105861000D01*
X61953000Y-105861000D01*
G37*
G36*
X59953000Y-104911000D02*
X58951000Y-104911000D01*
X58951000Y-104009000D01*
X59953000Y-104009000D01*
X59953000Y-104911000D01*
X59953000Y-104911000D01*
G37*
G36*
X53794677Y-103139465D02*
X53832364Y-103150898D01*
X53867103Y-103169466D01*
X53897548Y-103194452D01*
X53922534Y-103224897D01*
X53941102Y-103259636D01*
X53952535Y-103297323D01*
X53957000Y-103342661D01*
X53957000Y-104429339D01*
X53952535Y-104474677D01*
X53941102Y-104512364D01*
X53922534Y-104547103D01*
X53897548Y-104577548D01*
X53867103Y-104602534D01*
X53832364Y-104621102D01*
X53794677Y-104632535D01*
X53749339Y-104637000D01*
X52912661Y-104637000D01*
X52867323Y-104632535D01*
X52829636Y-104621102D01*
X52794897Y-104602534D01*
X52764452Y-104577548D01*
X52739466Y-104547103D01*
X52720898Y-104512364D01*
X52709465Y-104474677D01*
X52705000Y-104429339D01*
X52705000Y-103342661D01*
X52709465Y-103297323D01*
X52720898Y-103259636D01*
X52739466Y-103224897D01*
X52764452Y-103194452D01*
X52794897Y-103169466D01*
X52829636Y-103150898D01*
X52867323Y-103139465D01*
X52912661Y-103135000D01*
X53749339Y-103135000D01*
X53794677Y-103139465D01*
X53794677Y-103139465D01*
G37*
G36*
X55844677Y-103139465D02*
X55882364Y-103150898D01*
X55917103Y-103169466D01*
X55947548Y-103194452D01*
X55972534Y-103224897D01*
X55991102Y-103259636D01*
X56002535Y-103297323D01*
X56007000Y-103342661D01*
X56007000Y-104429339D01*
X56002535Y-104474677D01*
X55991102Y-104512364D01*
X55972534Y-104547103D01*
X55947548Y-104577548D01*
X55917103Y-104602534D01*
X55882364Y-104621102D01*
X55844677Y-104632535D01*
X55799339Y-104637000D01*
X54962661Y-104637000D01*
X54917323Y-104632535D01*
X54879636Y-104621102D01*
X54844897Y-104602534D01*
X54814452Y-104577548D01*
X54789466Y-104547103D01*
X54770898Y-104512364D01*
X54759465Y-104474677D01*
X54755000Y-104429339D01*
X54755000Y-103342661D01*
X54759465Y-103297323D01*
X54770898Y-103259636D01*
X54789466Y-103224897D01*
X54814452Y-103194452D01*
X54844897Y-103169466D01*
X54879636Y-103150898D01*
X54917323Y-103139465D01*
X54962661Y-103135000D01*
X55799339Y-103135000D01*
X55844677Y-103139465D01*
X55844677Y-103139465D01*
G37*
G36*
X44634239Y-97811467D02*
X44948282Y-97873934D01*
X45539926Y-98119001D01*
X45821618Y-98307222D01*
X46072395Y-98474786D01*
X46525214Y-98927605D01*
X46525216Y-98927608D01*
X46880999Y-99460074D01*
X47126066Y-100051718D01*
X47251000Y-100679804D01*
X47251000Y-101320196D01*
X47126066Y-101948282D01*
X46880999Y-102539926D01*
X46527615Y-103068802D01*
X46525214Y-103072395D01*
X46072395Y-103525214D01*
X46072392Y-103525216D01*
X45539926Y-103880999D01*
X44948282Y-104126066D01*
X44634239Y-104188533D01*
X44320197Y-104251000D01*
X43679803Y-104251000D01*
X43365761Y-104188533D01*
X43051718Y-104126066D01*
X42460074Y-103880999D01*
X41927608Y-103525216D01*
X41927605Y-103525214D01*
X41474786Y-103072395D01*
X41472385Y-103068802D01*
X41119001Y-102539926D01*
X40873934Y-101948282D01*
X40749000Y-101320196D01*
X40749000Y-100679804D01*
X40873934Y-100051718D01*
X41119001Y-99460074D01*
X41474784Y-98927608D01*
X41474786Y-98927605D01*
X41927605Y-98474786D01*
X42178382Y-98307222D01*
X42460074Y-98119001D01*
X43051718Y-97873934D01*
X43365761Y-97811467D01*
X43679803Y-97749000D01*
X44320197Y-97749000D01*
X44634239Y-97811467D01*
X44634239Y-97811467D01*
G37*
G36*
X138591000Y-102551000D02*
X133409000Y-102551000D01*
X133409000Y-100949000D01*
X138591000Y-100949000D01*
X138591000Y-102551000D01*
X138591000Y-102551000D01*
G37*
G36*
X65605000Y-100242000D02*
X63203000Y-100242000D01*
X63203000Y-98640000D01*
X65605000Y-98640000D01*
X65605000Y-100242000D01*
X65605000Y-100242000D01*
G37*
G36*
X72500443Y-98292519D02*
X72566627Y-98299037D01*
X72679853Y-98333384D01*
X72736467Y-98350557D01*
X72866036Y-98419814D01*
X72892991Y-98434222D01*
X72928729Y-98463552D01*
X73030186Y-98546814D01*
X73113448Y-98648271D01*
X73142778Y-98684009D01*
X73142779Y-98684011D01*
X73226443Y-98840533D01*
X73226443Y-98840534D01*
X73277963Y-99010373D01*
X73295359Y-99187000D01*
X73277963Y-99363627D01*
X73248706Y-99460074D01*
X73226443Y-99533467D01*
X73152348Y-99672087D01*
X73142778Y-99689991D01*
X73134411Y-99700186D01*
X73030186Y-99827186D01*
X72928729Y-99910448D01*
X72892991Y-99939778D01*
X72892989Y-99939779D01*
X72736467Y-100023443D01*
X72679853Y-100040616D01*
X72566627Y-100074963D01*
X72500443Y-100081481D01*
X72434260Y-100088000D01*
X72345740Y-100088000D01*
X72279558Y-100081482D01*
X72213373Y-100074963D01*
X72100147Y-100040616D01*
X72043533Y-100023443D01*
X71887011Y-99939779D01*
X71887009Y-99939778D01*
X71851271Y-99910448D01*
X71749814Y-99827186D01*
X71645589Y-99700186D01*
X71637222Y-99689991D01*
X71627652Y-99672087D01*
X71553557Y-99533467D01*
X71531294Y-99460074D01*
X71502037Y-99363627D01*
X71484641Y-99187000D01*
X71502037Y-99010373D01*
X71553557Y-98840534D01*
X71553557Y-98840533D01*
X71637221Y-98684011D01*
X71637222Y-98684009D01*
X71666552Y-98648271D01*
X71749814Y-98546814D01*
X71851271Y-98463552D01*
X71887009Y-98434222D01*
X71913964Y-98419814D01*
X72043533Y-98350557D01*
X72100147Y-98333384D01*
X72213373Y-98299037D01*
X72279557Y-98292519D01*
X72345740Y-98286000D01*
X72434260Y-98286000D01*
X72500443Y-98292519D01*
X72500443Y-98292519D01*
G37*
G36*
X78371000Y-100088000D02*
X76569000Y-100088000D01*
X76569000Y-98286000D01*
X78371000Y-98286000D01*
X78371000Y-100088000D01*
X78371000Y-100088000D01*
G37*
G36*
X75040443Y-98292519D02*
X75106627Y-98299037D01*
X75219853Y-98333384D01*
X75276467Y-98350557D01*
X75406036Y-98419814D01*
X75432991Y-98434222D01*
X75468729Y-98463552D01*
X75570186Y-98546814D01*
X75653448Y-98648271D01*
X75682778Y-98684009D01*
X75682779Y-98684011D01*
X75766443Y-98840533D01*
X75766443Y-98840534D01*
X75817963Y-99010373D01*
X75835359Y-99187000D01*
X75817963Y-99363627D01*
X75788706Y-99460074D01*
X75766443Y-99533467D01*
X75692348Y-99672087D01*
X75682778Y-99689991D01*
X75674411Y-99700186D01*
X75570186Y-99827186D01*
X75468729Y-99910448D01*
X75432991Y-99939778D01*
X75432989Y-99939779D01*
X75276467Y-100023443D01*
X75219853Y-100040616D01*
X75106627Y-100074963D01*
X75040443Y-100081481D01*
X74974260Y-100088000D01*
X74885740Y-100088000D01*
X74819558Y-100081482D01*
X74753373Y-100074963D01*
X74640147Y-100040616D01*
X74583533Y-100023443D01*
X74427011Y-99939779D01*
X74427009Y-99939778D01*
X74391271Y-99910448D01*
X74289814Y-99827186D01*
X74185589Y-99700186D01*
X74177222Y-99689991D01*
X74167652Y-99672087D01*
X74093557Y-99533467D01*
X74071294Y-99460074D01*
X74042037Y-99363627D01*
X74024641Y-99187000D01*
X74042037Y-99010373D01*
X74093557Y-98840534D01*
X74093557Y-98840533D01*
X74177221Y-98684011D01*
X74177222Y-98684009D01*
X74206552Y-98648271D01*
X74289814Y-98546814D01*
X74391271Y-98463552D01*
X74427009Y-98434222D01*
X74453964Y-98419814D01*
X74583533Y-98350557D01*
X74640147Y-98333384D01*
X74753373Y-98299037D01*
X74819557Y-98292519D01*
X74885740Y-98286000D01*
X74974260Y-98286000D01*
X75040443Y-98292519D01*
X75040443Y-98292519D01*
G37*
G36*
X117966443Y-98165519D02*
X118032627Y-98172037D01*
X118145853Y-98206384D01*
X118202467Y-98223557D01*
X118319288Y-98286000D01*
X118358991Y-98307222D01*
X118394729Y-98336552D01*
X118496186Y-98419814D01*
X118579448Y-98521271D01*
X118608778Y-98557009D01*
X118608779Y-98557011D01*
X118692443Y-98713533D01*
X118692443Y-98713534D01*
X118743963Y-98883373D01*
X118761359Y-99060000D01*
X118743963Y-99236627D01*
X118709616Y-99349853D01*
X118692443Y-99406467D01*
X118663789Y-99460074D01*
X118608778Y-99562991D01*
X118579448Y-99598729D01*
X118496186Y-99700186D01*
X118394729Y-99783448D01*
X118358991Y-99812778D01*
X118358989Y-99812779D01*
X118202467Y-99896443D01*
X118145853Y-99913616D01*
X118032627Y-99947963D01*
X117966443Y-99954481D01*
X117900260Y-99961000D01*
X117811740Y-99961000D01*
X117745557Y-99954481D01*
X117679373Y-99947963D01*
X117566147Y-99913616D01*
X117509533Y-99896443D01*
X117353011Y-99812779D01*
X117353009Y-99812778D01*
X117317271Y-99783448D01*
X117215814Y-99700186D01*
X117132552Y-99598729D01*
X117103222Y-99562991D01*
X117048211Y-99460074D01*
X117019557Y-99406467D01*
X117002384Y-99349853D01*
X116968037Y-99236627D01*
X116950641Y-99060000D01*
X116968037Y-98883373D01*
X117019557Y-98713534D01*
X117019557Y-98713533D01*
X117103221Y-98557011D01*
X117103222Y-98557009D01*
X117132552Y-98521271D01*
X117215814Y-98419814D01*
X117317271Y-98336552D01*
X117353009Y-98307222D01*
X117392712Y-98286000D01*
X117509533Y-98223557D01*
X117566147Y-98206384D01*
X117679373Y-98172037D01*
X117745557Y-98165519D01*
X117811740Y-98159000D01*
X117900260Y-98159000D01*
X117966443Y-98165519D01*
X117966443Y-98165519D01*
G37*
G36*
X116217000Y-99961000D02*
X114415000Y-99961000D01*
X114415000Y-98159000D01*
X116217000Y-98159000D01*
X116217000Y-99961000D01*
X116217000Y-99961000D01*
G37*
G36*
X120506443Y-98165519D02*
X120572627Y-98172037D01*
X120685853Y-98206384D01*
X120742467Y-98223557D01*
X120859288Y-98286000D01*
X120898991Y-98307222D01*
X120934729Y-98336552D01*
X121036186Y-98419814D01*
X121119448Y-98521271D01*
X121148778Y-98557009D01*
X121148779Y-98557011D01*
X121232443Y-98713533D01*
X121232443Y-98713534D01*
X121283963Y-98883373D01*
X121301359Y-99060000D01*
X121283963Y-99236627D01*
X121249616Y-99349853D01*
X121232443Y-99406467D01*
X121203789Y-99460074D01*
X121148778Y-99562991D01*
X121119448Y-99598729D01*
X121036186Y-99700186D01*
X120934729Y-99783448D01*
X120898991Y-99812778D01*
X120898989Y-99812779D01*
X120742467Y-99896443D01*
X120685853Y-99913616D01*
X120572627Y-99947963D01*
X120506443Y-99954481D01*
X120440260Y-99961000D01*
X120351740Y-99961000D01*
X120285557Y-99954481D01*
X120219373Y-99947963D01*
X120106147Y-99913616D01*
X120049533Y-99896443D01*
X119893011Y-99812779D01*
X119893009Y-99812778D01*
X119857271Y-99783448D01*
X119755814Y-99700186D01*
X119672552Y-99598729D01*
X119643222Y-99562991D01*
X119588211Y-99460074D01*
X119559557Y-99406467D01*
X119542384Y-99349853D01*
X119508037Y-99236627D01*
X119490641Y-99060000D01*
X119508037Y-98883373D01*
X119559557Y-98713534D01*
X119559557Y-98713533D01*
X119643221Y-98557011D01*
X119643222Y-98557009D01*
X119672552Y-98521271D01*
X119755814Y-98419814D01*
X119857271Y-98336552D01*
X119893009Y-98307222D01*
X119932712Y-98286000D01*
X120049533Y-98223557D01*
X120106147Y-98206384D01*
X120219373Y-98172037D01*
X120285557Y-98165519D01*
X120351740Y-98159000D01*
X120440260Y-98159000D01*
X120506443Y-98165519D01*
X120506443Y-98165519D01*
G37*
G36*
X123046443Y-98165519D02*
X123112627Y-98172037D01*
X123225853Y-98206384D01*
X123282467Y-98223557D01*
X123399288Y-98286000D01*
X123438991Y-98307222D01*
X123474729Y-98336552D01*
X123576186Y-98419814D01*
X123659448Y-98521271D01*
X123688778Y-98557009D01*
X123688779Y-98557011D01*
X123772443Y-98713533D01*
X123772443Y-98713534D01*
X123823963Y-98883373D01*
X123841359Y-99060000D01*
X123823963Y-99236627D01*
X123789616Y-99349853D01*
X123772443Y-99406467D01*
X123743789Y-99460074D01*
X123688778Y-99562991D01*
X123659448Y-99598729D01*
X123576186Y-99700186D01*
X123474729Y-99783448D01*
X123438991Y-99812778D01*
X123438989Y-99812779D01*
X123282467Y-99896443D01*
X123225853Y-99913616D01*
X123112627Y-99947963D01*
X123046443Y-99954481D01*
X122980260Y-99961000D01*
X122891740Y-99961000D01*
X122825557Y-99954481D01*
X122759373Y-99947963D01*
X122646147Y-99913616D01*
X122589533Y-99896443D01*
X122433011Y-99812779D01*
X122433009Y-99812778D01*
X122397271Y-99783448D01*
X122295814Y-99700186D01*
X122212552Y-99598729D01*
X122183222Y-99562991D01*
X122128211Y-99460074D01*
X122099557Y-99406467D01*
X122082384Y-99349853D01*
X122048037Y-99236627D01*
X122030641Y-99060000D01*
X122048037Y-98883373D01*
X122099557Y-98713534D01*
X122099557Y-98713533D01*
X122183221Y-98557011D01*
X122183222Y-98557009D01*
X122212552Y-98521271D01*
X122295814Y-98419814D01*
X122397271Y-98336552D01*
X122433009Y-98307222D01*
X122472712Y-98286000D01*
X122589533Y-98223557D01*
X122646147Y-98206384D01*
X122759373Y-98172037D01*
X122825557Y-98165519D01*
X122891740Y-98159000D01*
X122980260Y-98159000D01*
X123046443Y-98165519D01*
X123046443Y-98165519D01*
G37*
G36*
X125586443Y-98165519D02*
X125652627Y-98172037D01*
X125765853Y-98206384D01*
X125822467Y-98223557D01*
X125939288Y-98286000D01*
X125978991Y-98307222D01*
X126014729Y-98336552D01*
X126116186Y-98419814D01*
X126199448Y-98521271D01*
X126228778Y-98557009D01*
X126228779Y-98557011D01*
X126312443Y-98713533D01*
X126312443Y-98713534D01*
X126363963Y-98883373D01*
X126381359Y-99060000D01*
X126363963Y-99236627D01*
X126329616Y-99349853D01*
X126312443Y-99406467D01*
X126283789Y-99460074D01*
X126228778Y-99562991D01*
X126199448Y-99598729D01*
X126116186Y-99700186D01*
X126014729Y-99783448D01*
X125978991Y-99812778D01*
X125978989Y-99812779D01*
X125822467Y-99896443D01*
X125765853Y-99913616D01*
X125652627Y-99947963D01*
X125586443Y-99954481D01*
X125520260Y-99961000D01*
X125431740Y-99961000D01*
X125365557Y-99954481D01*
X125299373Y-99947963D01*
X125186147Y-99913616D01*
X125129533Y-99896443D01*
X124973011Y-99812779D01*
X124973009Y-99812778D01*
X124937271Y-99783448D01*
X124835814Y-99700186D01*
X124752552Y-99598729D01*
X124723222Y-99562991D01*
X124668211Y-99460074D01*
X124639557Y-99406467D01*
X124622384Y-99349853D01*
X124588037Y-99236627D01*
X124570641Y-99060000D01*
X124588037Y-98883373D01*
X124639557Y-98713534D01*
X124639557Y-98713533D01*
X124723221Y-98557011D01*
X124723222Y-98557009D01*
X124752552Y-98521271D01*
X124835814Y-98419814D01*
X124937271Y-98336552D01*
X124973009Y-98307222D01*
X125012712Y-98286000D01*
X125129533Y-98223557D01*
X125186147Y-98206384D01*
X125299373Y-98172037D01*
X125365557Y-98165519D01*
X125431740Y-98159000D01*
X125520260Y-98159000D01*
X125586443Y-98165519D01*
X125586443Y-98165519D01*
G37*
M02*
