M48
;DRILL file {KiCad 5.0.2+dfsg1-1} date Thu 25 Feb 2021 16:07:56 CET
;FORMAT={-:-/ absolute / metric / decimal}
FMAT,2
METRIC,TZ
T1C0.400
T2C0.450
T3C1.000
T4C3.200
%
G90
G05
T1
X40.894Y-128.524
X42.672Y-125.222
X43.688Y-108.204
X44.45Y-128.778
X46.Y-114.
X46.Y-118.
X47.244Y-116.84
X47.752Y-107.696
X47.752Y-110.998
X47.752Y-114.808
X49.784Y-101.6
X50.038Y-128.778
X50.8Y-119.38
X52.07Y-110.236
X52.578Y-111.506
X53.594Y-99.06
X53.848Y-121.793
X56.388Y-117.348
X56.388Y-121.412
X56.642Y-129.54
X59.182Y-100.076
X59.436Y-124.968
X59.817Y-110.744
X60.198Y-109.22
X62.23Y-117.348
X62.23Y-121.666
X64.008Y-107.696
X65.024Y-115.316
X65.532Y-122.428
X67.31Y-129.286
X69.088Y-119.888
X70.612Y-117.348
X70.612Y-122.936
X73.66Y-129.286
X73.914Y-115.57
X74.168Y-108.966
X75.184Y-118.364
X75.565Y-103.505
X77.978Y-111.506
X77.978Y-129.286
X78.193Y-123.556
X80.264Y-129.286
X82.931Y-126.111
X99.314Y-125.73
X104.14Y-122.682
X105.156Y-103.505
X105.41Y-113.03
X105.664Y-105.918
X107.188Y-124.968
X107.823Y-119.014
X108.204Y-104.013
X109.676Y-110.998
X109.818Y-112.776
X110.49Y-101.727
X110.744Y-124.206
X116.078Y-124.206
X118.618Y-105.41
X123.19Y-128.778
X123.444Y-103.378
X123.952Y-125.222
X127.762Y-125.73
X128.27Y-103.378
X128.524Y-128.27
X132.08Y-113.03
X132.588Y-119.38
X133.096Y-115.57
X136.398Y-119.634
T3
X115.316Y-99.06
X117.856Y-99.06
X120.396Y-99.06
X122.936Y-99.06
X125.476Y-99.06
X72.39Y-99.187
X74.93Y-99.187
X77.47Y-99.187
T4
X134.Y-126.
X44.Y-101.
T2
X40.31Y-112.425G85X41.11Y-112.425
G05
X41.11Y-119.575G85X40.31Y-119.575
G05
T0
M30
